<?xml version="1.0" standalone="no"?>
<!DOCTYPE svg PUBLIC "-//W3C//DTD SVG 1.1//EN" "http://www.w3.org/Graphics/SVG/1.1/DTD/svg11.dtd" >
<svg xmlns="http://www.w3.org/2000/svg">
<metadata>Generated by IcoMoon</metadata>
<defs>
<font id="icomoon" horiz-adv-x="1024">
<font-face units-per-em="1024" ascent="960" descent="-64" />
<missing-glyph horiz-adv-x="1024" />
<glyph unicode="&#x20;" horiz-adv-x="512" d="" />
<glyph unicode="&#xe900;" d="M999.619 448c0-269.305-218.314-487.619-487.619-487.619s-487.619 218.314-487.619 487.619c0 269.305 218.314 487.619 487.619 487.619s487.619-218.314 487.619-487.619z" />
<glyph unicode="&#xe901;" d="M902.095 448c0-215.444-174.652-390.095-390.095-390.095s-390.095 174.652-390.095 390.095c0 215.444 174.652 390.095 390.095 390.095s390.095-174.652 390.095-390.095z" />
<glyph unicode="&#xe902;" d="M511.828 569.79c-20.198 0-36.571-16.374-36.571-36.571v-268.19c0-20.198 16.374-36.571 36.571-36.571s36.571 16.374 36.571 36.571v268.19c0 20.198-16.374 36.571-36.571 36.571z" />
<glyph unicode="&#xe903;" d="M511.828 716.076c-20.198 0-36.571-16.374-36.571-36.571v-24.381c0-20.198 16.374-36.571 36.571-36.571s36.571 16.374 36.571 36.571v24.381c0 20.198-16.374 36.571-36.571 36.571z" />
<glyph unicode="&#xe904;" d="M999.619 448c0-269.305-218.314-487.619-487.619-487.619s-487.619 218.314-487.619 487.619c0 269.305 218.314 487.619 487.619 487.619s487.619-218.314 487.619-487.619z" />
<glyph unicode="&#xe905;" d="M902.095 448c0-215.444-174.652-390.095-390.095-390.095s-390.095 174.652-390.095 390.095c0 215.444 174.652 390.095 390.095 390.095s390.095-174.652 390.095-390.095z" />
<glyph unicode="&#xe906;" d="M327.008 446.556c14.282 14.282 37.438 14.282 51.72 0l94.82-94.82c14.282-14.282 14.282-37.438 0-51.72s-37.438-14.282-51.72 0l-94.82 94.82c-14.282 14.282-14.282 37.438 0 51.72z" />
<glyph unicode="&#xe907;" d="M374.183 347.427l51.72 51.72 63.773-63.773-51.72-51.72-63.773 63.773z" />
<glyph unicode="&#xe908;" d="M421.775 300.017c14.282-14.282 37.438-14.282 51.72 0l232.898 232.898c14.282 14.282 14.282 37.438 0 51.72s-37.438 14.282-51.72 0l-232.898-232.898c-14.282-14.282-14.282-37.438 0-51.72z" />
<glyph unicode="&#xe909;" d="M999.619 448c0-269.305-218.314-487.619-487.619-487.619s-487.619 218.314-487.619 487.619c0 269.305 218.314 487.619 487.619 487.619s487.619-218.314 487.619-487.619z" />
<glyph unicode="&#xe90a;" d="M902.095 448c0-215.444-174.652-390.095-390.095-390.095s-390.095 174.652-390.095 390.095c0 215.444 174.652 390.095 390.095 390.095s390.095-174.652 390.095-390.095z" />
<glyph unicode="&#xe90b;" d="M511.828 370.281c20.198 0 36.571 16.374 36.571 36.571v229.967c0 20.198-16.374 36.571-36.571 36.571s-36.571-16.374-36.571-36.571v-229.967c0-20.198 16.374-36.571 36.571-36.571z" />
<glyph unicode="&#xe90c;" d="M512.213 228.457c20.198 0 36.571 16.374 36.571 36.571v24.482c0 20.198-16.374 36.571-36.571 36.571s-36.571-16.374-36.571-36.571v-24.482c0-20.198 16.374-36.571 36.571-36.571z" />
<glyph unicode="&#xe90d;" glyph-name="uniE90D" d="M512.302 878.080l4.777-0.276c20.371-2.366 36.183-19.679 36.183-40.684v0l-0.276-4.777c-2.366-20.371-19.679-36.183-40.684-36.183v0h-368.942v-737.28h737.28v366.012l0.276 4.777c2.366 20.371 19.679 36.183 40.684 36.183 22.622 0 40.96-18.338 40.96-40.96v0-386.492l-0.281-5.917c-2.977-31.156-29.222-55.523-61.159-55.523v0l-784.157 0.281c-31.156 2.977-55.523 29.222-55.523 61.159v0 778.24l0.281 5.917c2.977 31.156 29.222 55.523 61.159 55.523v0h389.422zM951.171 865.462c14.449-15.075 15.091-38.328 2.26-54.128l-3.489-3.786-470.097-450.56c-16.332-15.653-42.26-15.103-57.913 1.229-14.449 15.075-15.091 38.328-2.26 54.128l3.489 3.786 470.097 450.56c16.332 15.653 42.26 15.103 57.913-1.229z" />
<glyph unicode="&#xe90e;" glyph-name="3" d="M512 960c282.77 0 512-229.23 512-512s-229.23-512-512-512c-282.77 0-512 229.23-512 512s229.23 512 512 512zM512 846.222c-219.932 0-398.222-178.29-398.222-398.222s178.29-398.222 398.222-398.222c219.932 0 398.222 178.29 398.222 398.222s-178.29 398.222-398.222 398.222zM512 675.556c29.175 0 53.22-21.961 56.506-50.254l0.383-6.634v-113.778h113.778c31.419 0 56.889-25.47 56.889-56.889 0-29.175-21.961-53.22-50.254-56.506l-6.634-0.383h-113.778v-113.778c0-31.419-25.47-56.889-56.889-56.889-29.175 0-53.22 21.961-56.506 50.254l-0.383 6.634v113.778h-113.778c-31.419 0-56.889 25.47-56.889 56.889 0 29.175 21.961 53.22 50.254 56.506l6.634 0.383h113.778v113.778c0 31.419 25.47 56.889 56.889 56.889z" />
<glyph unicode="&#xe911;" glyph-name="-copy-24" d="M853.333 903.111c31.419 0 56.889-25.47 56.889-56.889v-796.444c0-31.419-25.47-56.889-56.889-56.889h-682.667c-31.419 0-56.889 25.47-56.889 56.889v56.889l0.383 6.634c3.286 28.293 27.331 50.254 56.506 50.254s53.22-21.961 56.506-50.254l0.383-6.634h284.444v682.667h-284.444c0-31.419-25.47-56.889-56.889-56.889-29.175 0-53.22 21.961-56.506 50.254l-0.383 6.634v56.889c0 31.419 25.47 56.889 56.889 56.889h682.667zM796.444 789.333h-170.667v-682.667h170.667v682.667zM227.556 391.111c31.419 0 56.889-25.47 56.889-56.889s-25.47-56.889-56.889-56.889h-113.778c-31.419 0-56.889 25.47-56.889 56.889s25.47 56.889 56.889 56.889h113.778zM227.556 618.667c31.419 0 56.889-25.47 56.889-56.889s-25.47-56.889-56.889-56.889h-113.778c-31.419 0-56.889 25.47-56.889 56.889s25.47 56.889 56.889 56.889h113.778z" />
<glyph unicode="&#xe912;" d="M512 903.111v0c251.351 0 455.111-203.76 455.111-455.111v0c0-251.351-203.76-455.111-455.111-455.111v0c-251.351 0-455.111 203.76-455.111 455.111v0c0 251.351 203.76 455.111 455.111 455.111z" />
<glyph unicode="&#xe913;" d="M713.133 649.133c22.216-22.216 22.216-58.237 0-80.453l-120.688-120.677 120.688-120.683c22.216-22.216 22.216-58.237 0-80.453s-58.237-22.216-80.453 0l-120.683 120.688-120.677-120.688c-22.216-22.216-58.237-22.216-80.453 0s-22.216 58.237 0 80.453l120.682 120.683-120.682 120.677c-22.216 22.216-22.216 58.237 0 80.453s58.237 22.216 80.453 0l120.677-120.682 120.683 120.682c22.216 22.216 58.237 22.216 80.453 0z" />
<glyph unicode="&#xe914;" d="M512 903.111v0c251.351 0 455.111-203.76 455.111-455.111v0c0-251.351-203.76-455.111-455.111-455.111v0c-251.351 0-455.111 203.76-455.111 455.111v0c0 251.351 203.76 455.111 455.111 455.111z" />
<glyph unicode="&#xe915;" d="M703.797 639.766c21.187 21.187 55.538 21.187 76.725 0s21.187-55.538 0-76.725v0l-306.901-306.901c-8.828-8.828-19.941-13.978-31.436-15.449l-6.927-0.441c-13.885 0-27.769 5.297-38.363 15.89l-153.45 153.45c-21.187 21.187-21.187 55.538 0 76.725s55.538 21.187 76.725 0l115.064-115.011z" />
<glyph unicode="&#xe916;" d="M512 903.111v0c251.351 0 455.111-203.76 455.111-455.111v0c0-251.351-203.76-455.111-455.111-455.111v0c-251.351 0-455.111 203.76-455.111 455.111v0c0 251.351 203.76 455.111 455.111 455.111z" />
<glyph unicode="&#xe917;" d="M284.444 504.889h455.111c31.419 0 56.889-25.47 56.889-56.889v0c0-31.419-25.47-56.889-56.889-56.889h-455.111c-31.419 0-56.889 25.47-56.889 56.889v0c0 31.419 25.47 56.889 56.889 56.889z" />
<glyph unicode="&#xe918;" glyph-name="9" d="M864.226 384c28.251 0 42.4-34.469 22.423-54.627l-190.265-192c-12.384-12.497-32.462-12.497-44.846 0s-12.384 32.758 0 45.255l136.132 137.373h-627.958c-17.513 0-31.711 14.327-31.711 32s14.197 32 31.711 32h704.515zM372.463 758.627c12.384-12.497 12.384-32.758 0-45.255l-136.132-137.373h627.958c17.513 0 31.711-14.327 31.711-32s-14.197-32-31.711-32h-704.515c-28.251 0-42.4 34.469-22.423 54.627l190.265 192c12.384 12.497 32.462 12.497 44.846 0z" />
<glyph unicode="&#xe91a;" glyph-name="12" d="M197.117 249.121c-29.047-28.073-75.351-27.284-103.425 1.763-25.914 26.812-27.235 68.33-4.438 96.639l6.201 6.786 370.885 358.454c26.435 25.549 67.253 27.24 95.591 5.263l6.809-5.987 360.544-358.454c28.647-28.481 28.782-74.792 0.301-103.439-26.29-26.443-67.773-28.592-96.531-6.365l-6.908 6.065-309.683 307.87-319.345-308.594z" />
<glyph unicode="&#xe91d;" glyph-name="15" d="M487.428 185.5l-4.701 4.188-342.984 342.984c-21.047 21.047-21.047 55.171 0 76.219 19.544 19.544 50.363 20.94 71.518 4.188l4.701-4.188 245.916-245.937v489.256c0 29.765 24.129 53.895 53.895 53.895 27.639 0 50.419-20.806 53.532-47.609l0.363-6.285v-499.389l256.044 256.069c19.544 19.544 50.363 20.94 71.518 4.188l4.701-4.188c19.544-19.544 20.94-50.363 4.188-71.518l-4.188-4.701-342.984-342.984c-19.544-19.544-50.363-20.94-71.518-4.188zM80.845 43.789c-29.767 0-53.898 24.129-53.898 53.895 0 27.639 20.807 50.419 47.612 53.532l6.286 0.363h862.31c29.767 0 53.898-24.129 53.898-53.895 0-27.639-20.807-50.419-47.612-53.532l-6.286-0.363h-862.31z" />
<glyph unicode="&#xe91e;" glyph-name="16" d="M826.883 646.879c29.047 28.073 75.351 27.284 103.425-1.763 25.914-26.812 27.235-68.33 4.438-96.639l-6.201-6.786-370.885-358.454c-26.435-25.549-67.253-27.24-95.591-5.263l-6.809 5.987-360.544 358.454c-28.647 28.481-28.782 74.792-0.301 103.439 26.29 26.443 67.773 28.592 96.531 6.365l6.908-6.065 309.683-307.87 319.345 308.594z" />
<glyph unicode="&#xe91f;" glyph-name="8" d="M314.883 866.308c26.812 25.914 68.33 27.235 96.639 4.438l6.786-6.201 358.454-370.885c25.549-26.435 27.24-67.253 5.263-95.591l-5.987-6.809-358.454-360.544c-28.481-28.647-74.792-28.782-103.439-0.301-26.443 26.29-28.592 67.773-6.365 96.531l6.065 6.908 307.87 309.756-308.594 319.272c-25.914 26.812-27.235 68.33-4.438 96.639l6.201 6.786z" />
<glyph unicode="&#xe920;" d="M829.374 803.617c25.397 18.496 60.98 12.902 79.477-12.495 17.074-23.444 13.62-55.566-6.988-74.917l-5.507-4.559-151.754-110.52c-25.397-18.496-60.98-12.902-79.477 12.495-17.074 23.444-13.62 55.566 6.988 74.917l5.507 4.559 151.754 110.52z" />
<glyph unicode="&#xe921;" d="M829.374 47.862c25.397-18.496 60.98-12.902 79.477 12.495 17.074 23.444 13.62 55.566-6.988 74.917l-5.507 4.559-151.754 110.52c-25.397 18.496-60.98 12.902-79.477-12.495-17.074-23.444-13.62-55.566 6.988-74.917l5.507-4.559 151.754-110.52z" />
<glyph unicode="&#xe922;" d="M921.215 471.738c31.419 0 56.889-25.47 56.889-56.889 0-29.175-21.961-53.22-50.254-56.506l-6.634-0.383h-153.215c-31.419 0-56.889 25.47-56.889 56.889 0 29.175 21.961 53.22 50.254 56.506l6.634 0.383h153.215z" />
<glyph unicode="&#xe923;" d="M476.462 833.756l-268.874-215.089h-150.699c-31.419 0-56.889-25.47-56.889-56.889v-284.444l0.383-6.634c3.286-28.293 27.331-50.254 56.506-50.254h150.756l268.817-215.089c37.249-29.799 92.427-3.279 92.427 44.423v739.556c0 47.702-55.178 74.222-92.427 44.423zM455.111 671.061v-502.955l-192.017 153.649-6.329 4.395c-8.786 5.257-18.875 8.071-29.209 8.071h-113.778v170.667h113.778c12.918 0 25.451 4.396 35.538 12.466l192.017 153.706z" />
<glyph unicode="&#xe924;" glyph-name="diannaoshouji-zaixian" d="M455.111 277.333v-113.778h-227.556c-31.419 0-56.889 25.47-56.889 56.889s25.47 56.889 56.889 56.889h227.556zM739.556 903.111c31.419 0 56.889-25.47 56.889-56.889v-170.667h-113.778v113.778h-512v-341.333h284.444v-113.778h-341.333c-31.419 0-56.889 25.47-56.889 56.889v455.111c0 31.419 25.47 56.889 56.889 56.889h625.778zM910.222 675.556c31.419 0 56.889-25.47 56.889-56.889v-568.889c0-31.419-25.47-56.889-56.889-56.889h-398.222c-31.419 0-56.889 25.47-56.889 56.889v568.889c0 31.419 25.47 56.889 56.889 56.889h398.222zM853.333 561.778h-284.444v-455.111h284.444v455.111zM711.111 249.032c28.223 0 51.101-22.879 51.101-51.101s-22.879-51.101-51.101-51.101c-28.223 0-51.101 22.879-51.101 51.101s22.879 51.101 51.101 51.101z" />
<glyph unicode="&#xe925;" glyph-name="diannaozaixian" d="M910.222 903.111c31.419 0 56.889-25.47 56.889-56.889v-568.889c0-31.419-25.47-56.889-56.889-56.889h-796.444c-31.419 0-56.889 25.47-56.889 56.889v568.889c0 31.419 25.47 56.889 56.889 56.889h796.444zM853.333 789.333h-682.667v-455.111h682.667v455.111zM341.333 163.556h341.333c31.419 0 56.889-25.47 56.889-56.889s-25.47-56.889-56.889-56.889h-341.333c-31.419 0-56.889 25.47-56.889 56.889s25.47 56.889 56.889 56.889z" />
<glyph unicode="&#xe926;" glyph-name="Group-8-Copy" d="M511.425 780.876c219.627 0 397.67-178.043 397.67-397.67s-178.043-397.67-397.67-397.67c-219.627 0-397.67 178.043-397.67 397.67s178.043 397.67 397.67 397.67zM511.425 714.598c-183.023 0-331.392-148.369-331.392-331.392s148.369-331.392 331.392-331.392c183.023 0 331.392 148.369 331.392 331.392s-148.369 331.392-331.392 331.392zM479.425 582.041c17.673 0 32-14.327 32-32l-0.001-166.809 166.836-0.026c17.673 0 32-14.327 32-32v-2.278c0-17.673-14.327-32-32-32h-201.113c-17.673 0-32 14.327-32 32v201.113c0 17.673 14.327 32 32 32h2.278zM724.265 904.971c89.637-36.6 168.385-95.898 228.545-171.644 11.383-14.332 8.992-35.178-5.34-46.561s-35.178-8.992-46.561 5.34c-53.112 66.872-122.629 119.219-201.699 151.504-16.944 6.919-25.072 26.263-18.153 43.207s26.263 25.072 43.207 18.153zM345.246 887.967c6.802-16.991-1.459-36.28-18.45-43.081-79.822-31.952-150.079-84.298-203.777-151.428-11.432-14.292-32.287-16.611-46.579-5.178s-16.611 32.287-5.178 46.579c60.822 76.038 140.412 135.336 230.903 171.559 16.991 6.802 36.28-1.459 43.081-18.45z" />
<glyph unicode="&#xe927;" glyph-name="Group-8-Copy1" d="M511.425 780.876c219.627 0 397.67-178.043 397.67-397.67s-178.043-397.67-397.67-397.67c-219.627 0-397.67 178.043-397.67 397.67s178.043 397.67 397.67 397.67zM511.425 714.598c-183.023 0-331.392-148.369-331.392-331.392s148.369-331.392 331.392-331.392c183.023 0 331.392 148.369 331.392 331.392s-148.369 331.392-331.392 331.392zM479.425 582.041c17.673 0 32-14.327 32-32l-0.001-166.809 166.836-0.026c17.673 0 32-14.327 32-32v-2.278c0-17.673-14.327-32-32-32h-201.113c-17.673 0-32 14.327-32 32v201.113c0 17.673 14.327 32 32 32h2.278zM724.265 904.971c89.637-36.6 168.385-95.898 228.545-171.644 11.383-14.332 8.992-35.178-5.34-46.561s-35.178-8.992-46.561 5.34c-53.112 66.872-122.629 119.219-201.699 151.504-16.944 6.919-25.072 26.263-18.153 43.207s26.263 25.072 43.207 18.153zM345.246 887.967c6.802-16.991-1.459-36.28-18.45-43.081-79.822-31.952-150.079-84.298-203.777-151.428-11.432-14.292-32.287-16.611-46.579-5.178s-16.611 32.287-5.178 46.579c60.822 76.038 140.412 135.336 230.903 171.559 16.991 6.802 36.28-1.459 43.081-18.45z" />
<glyph unicode="&#xe928;" glyph-name="icon_" d="M512 760.686c170.042 0 324.89-92.904 464.546-278.713 13.696-18.222 15.065-42.618 4.109-62.075l-4.109-6.287-14.017-18.27c-135.979-173.627-286.155-260.44-450.528-260.44-170.042 0-324.89 92.904-464.546 278.713-13.696 18.222-15.065 42.618-4.109 62.075l4.109 6.287 14.017 18.27c135.979 173.627 286.155 260.44 450.528 260.44zM512 646.908c-116.696 0-227.351-58.97-334.586-184.509l-12.265-14.57 11.878-14.145c103.333-121.006 209.541-180.182 321.012-184.722l13.961-0.284c116.696 0 227.351 58.97 334.586 184.509l12.152 14.641-11.764 14.073c-103.333 121.006-209.541 180.182-321.012 184.722l-13.961 0.284zM512 575.906c70.754 0 128.112-57.358 128.112-128.112s-57.358-128.112-128.112-128.112c-70.754 0-128.112 57.358-128.112 128.112s57.358 128.112 128.112 128.112z" />
<glyph unicode="&#xe929;" glyph-name="icon_1" d="M952.189 599.598c20.887-23.47 18.794-59.43-4.677-80.317-37.128-33.042-74.611-61.656-112.401-85.844l88.556-153.364c15.709-27.21 6.387-62.002-20.823-77.712-25.266-14.587-57.071-7.591-74.063 15.269l-3.649 5.554-90.51 156.655c-54.75-23.447-110.038-37.851-165.721-43.223l-0.013-172.256c0-31.419-25.47-56.889-56.889-56.889-29.175 0-53.22 21.961-56.506 50.254l-0.383 6.634 0.015 173.786c-54.334 6.652-108.946 21.755-163.708 45.3l-92.551-160.264-3.649-5.554c-16.992-22.859-48.797-29.856-74.063-15.269-27.21 15.709-36.532 50.502-20.823 77.712v0l90.218 156.204c-37.663 23.255-75.36 50.481-113.047 81.676-24.203 20.034-27.583 55.895-7.549 80.098s55.895 27.583 80.098 7.549c253.602-209.914 487.439-209.914 721.82-1.327 23.47 20.887 59.43 18.794 80.317-4.677z" />
<glyph unicode="&#xe92a;" glyph-name="icon_dd_album" d="M938.667 917.333c47.128 0 85.333-38.205 85.333-85.333v-768c0-47.128-38.205-85.333-85.333-85.333h-853.333c-47.128 0-85.333 38.205-85.333 85.333v768c0 47.128 38.205 85.333 85.333 85.333h853.333zM640.213 341.333l-180.425-203.361c-14.208-16.011-37.819-18.84-55.278-7.386l-4.228 3.162-112.154 95.116-149.931-164.864h751.573l-249.557 277.333zM938.667 832h-853.333v-699.307l167.438 184.017c14.277 15.696 37.663 18.347 54.966 6.97l4.19-3.137 111.711-94.709 184.45 207.818c15.689 17.68 42.421 19.032 59.794 3.986l3.834-3.763 266.952-296.659v694.784zM725.333 746.667c70.692 0 128-57.308 128-128s-57.308-128-128-128c-70.692 0-128 57.308-128 128s57.308 128 128 128zM725.333 669.867c-28.277 0-51.2-22.923-51.2-51.2s22.923-51.2 51.2-51.2c28.277 0 51.2 22.923 51.2 51.2s-22.923 51.2-51.2 51.2z" />
<glyph unicode="&#xe92b;" glyph-name="icon_dd_evaluation" d="M768 917.333c47.128 0 85.333-38.205 85.333-85.333l-0.009-369.28-85.333-71.040 0.009 440.32h-512l-0.009-436.096-85.333 69.632-0.033 99.968-83.081-32.195 429.583-350.508 421.188 350.508-84.98 33.518v91.733l116.299-45.872c35.007-13.812 54.003-46.461 54.035-79.537l0.333 0.183v-426.667c0-68.168-53.287-123.89-120.479-127.783l-7.521-0.217h-768c-68.168 0-123.89 53.287-127.783 120.479l-0.217 7.521v426.667l2.193-1.147c-0.317 31.334 16.395 62.457 47.645 77.693l6.918 3.016 113.868 44.086 0.043 175.019c0 47.128 38.205 85.333 85.333 85.333h512zM85.333 424.961v-318.295c0-21.881 16.471-39.915 37.691-42.38l4.976-0.287h768c21.881 0 39.915 16.471 42.38 37.691l0.287 4.976v315.948l-366.957-305.406c-29.429-24.49-71.257-26.215-102.443-5.061l-6.088 4.536-377.845 308.278zM416.713 432.395c-4.379-1.46-9.113-1.46-13.492 0-11.177 3.726-17.218 15.807-13.492 26.985v0l16.678 50.033 226.274 226.274c8.331 8.331 21.839 8.331 30.17 0l30.17-30.17c8.331-8.331 8.331-21.839 0-30.17l-226.274-226.274z" />
<glyph unicode="&#xe92c;" glyph-name="icon_dd_goods" d="M555.532 874.448l-7.977 0.219h-71.111c-72.322 0-130.799-53.658-134.883-120.519l-0.228-7.481h-85.333c0 115.188 94.061 208.44 211.154 213.147l9.291 0.186h71.111c118.255 0 215.349-90.299 220.25-204.286l0.194-9.047h89.706c45.385 0 82.83-35.526 85.215-80.848l33.684-640c2.477-47.063-33.667-87.223-80.73-89.7l-4.485-0.118h-758.781c-44.986 0-81.842 34.811-85.099 78.965l-0.205 8.612 33.773 642.242c2.385 45.323 39.83 80.848 85.215 80.848h516.373c0 67.783-55.894 123.862-127.134 127.781zM857.685 661.333h-691.392l-33.684-640h758.781l-33.705 640zM594.794 529.067c22.724 0 44.12-5.736 63.545-17.095 19.17-11.236 34.563-26.682 45.731-45.89 11.276-19.385 16.977-40.782 16.997-63.542 0-16.417-3.156-32.447-9.403-47.91-6.331-15.574-15.572-29.492-27.548-41.506v0l-144.916-145.388c-15.006-15.054-39.386-15.055-54.393-0.001v0l-144.935 145.393c-11.97 12.012-21.215 25.939-27.566 41.58-6.218 15.392-9.372 31.417-9.372 47.835 0 22.736 5.706 44.151 16.983 63.517 11.17 19.235 26.577 34.691 45.779 45.934 19.379 11.331 40.752 17.062 63.488 17.075 16.485 0 32.514-3.15 47.807-9.38 15.534-6.319 29.459-15.653 41.477-27.733v0l-6.467 6.051 0.91 0.828c7.651 6.561 15.97 12.116 24.905 16.624v0l9.139 4.158c15.371 6.271 31.409 9.451 47.84 9.451zM594.794 452.267c-6.429 0-12.619-1.227-18.845-3.767-6.015-2.451-11.28-5.969-16.072-10.778v0l-20.703-20.76c-15.004-15.045-39.374-15.046-54.379-0.001v0l-20.739 20.793c-4.837 4.862-10.11 8.396-16.024 10.802-6.124 2.495-12.314 3.711-18.827 3.711-9.18-0.005-17.18-2.15-24.724-6.561-7.747-4.536-13.641-10.449-18.174-18.255-4.423-7.596-6.574-15.666-6.574-24.909 0-6.496 1.233-12.76 3.755-19.004 2.467-6.075 6.004-11.403 10.779-16.196v0l117.732-118.083 117.722 118.082c3.59 3.602 6.476 7.497 8.725 11.754v0l2.039 4.38c2.546 6.303 3.781 12.571 3.781 19.032-0.008 9.274-2.163 17.361-6.586 24.966-4.521 7.776-10.421 13.696-18.142 18.222-7.569 4.426-15.577 6.573-24.744 6.573z" />
<glyph unicode="&#xe92d;" glyph-name="icon_dd_lenovo" d="M938.667 874.667c47.128 0 85.333-38.205 85.333-85.333v-682.667c0-47.128-38.205-85.333-85.333-85.333h-853.333c-47.128 0-85.333 38.205-85.333 85.333v682.667c0 47.128 38.205 85.333 85.333 85.333h853.333zM938.667 789.333h-853.333v-682.667h853.333v682.667zM341.333 704c23.564 0 42.667-19.103 42.667-42.667s-19.103-42.667-42.667-42.667h-21.333v-341.333h21.333c23.564 0 42.667-19.103 42.667-42.667s-19.103-42.667-42.667-42.667h-128c-23.564 0-42.667 19.103-42.667 42.667s19.103 42.667 42.667 42.667h21.333v341.333h-21.333c-23.564 0-42.667 19.103-42.667 42.667s19.103 42.667 42.667 42.667h128z" />
<glyph unicode="&#xe92e;" glyph-name="icon_dd_list" d="M682.667 746.667h-341.333c-23.564 0-42.667 19.103-42.667 42.667h-128v-768h682.667v768h-128c0-23.564-19.103-42.667-42.667-42.667zM512 277.333c23.564 0 42.667-19.103 42.667-42.667s-19.103-42.667-42.667-42.667h-213.333c-23.564 0-42.667 19.103-42.667 42.667s19.103 42.667 42.667 42.667h213.333zM426.667 448c23.564 0 42.667-19.103 42.667-42.667s-19.103-42.667-42.667-42.667h-128c-23.564 0-42.667 19.103-42.667 42.667s19.103 42.667 42.667 42.667h128zM682.667 618.667c23.564 0 42.667-19.103 42.667-42.667s-19.103-42.667-42.667-42.667h-384c-23.564 0-42.667 19.103-42.667 42.667s19.103 42.667 42.667 42.667h384zM640 874.667h-256v-42.667h256v42.667zM725.333 874.667h170.667c23.564 0 42.667-19.103 42.667-42.667v-853.333c0-23.564-19.103-42.667-42.667-42.667h-768c-23.564 0-42.667 19.103-42.667 42.667v853.333c0 23.564 19.103 42.667 42.667 42.667h170.667v42.667c0 23.564 19.103 42.667 42.667 42.667h341.333c23.564 0 42.667-19.103 42.667-42.667v-42.667z" />
<glyph unicode="&#xe92f;" glyph-name="icon_dd_note" d="M938.667 874.667c47.128 0 85.333-38.205 85.333-85.333v-682.667c0-47.128-38.205-85.333-85.333-85.333h-853.333c-47.128 0-85.333 38.205-85.333 85.333v682.667c0 47.128 38.205 85.333 85.333 85.333h853.333zM938.667 789.333h-853.333v-682.667h853.333v682.667zM384 704c82.475 0 149.333-66.859 149.333-149.333 0-36.943-13.415-70.753-35.639-96.824 59.86-37.729 99.639-104.474 99.639-180.509v-42.667c0-14.63-1.473-28.916-4.278-42.717h-418.111c-2.805 13.802-4.278 28.088-4.278 42.717v42.667c0 76.035 39.779 142.78 99.661 180.559-22.246 26.022-35.661 59.832-35.661 96.775 0 82.475 66.859 149.333 149.333 149.333zM384 405.333c-68.168 0-123.89-53.287-127.783-120.479l-0.217-7.564h256c0 68.21-53.287 123.932-120.479 127.825l-7.521 0.217zM768 490.667c23.564 0 42.667-19.103 42.667-42.667s-19.103-42.667-42.667-42.667h-85.333c-23.564 0-42.667 19.103-42.667 42.667s19.103 42.667 42.667 42.667h85.333zM384 618.667c-35.346 0-64-28.654-64-64s28.654-64 64-64c35.346 0 64 28.654 64 64s-28.654 64-64 64zM810.667 661.333c23.564 0 42.667-19.103 42.667-42.667s-19.103-42.667-42.667-42.667h-128c-23.564 0-42.667 19.103-42.667 42.667s19.103 42.667 42.667 42.667h128z" />
<glyph unicode="&#xe930;" glyph-name="icon_dd_note1" d="M725.333 832c47.128 0 85.333-38.205 85.333-85.333v-173.099l145.291 120.751c25.718 21.382 64.335 5.076 67.793-26.745l0.25-4.649v-429.851c0-33.248-37.448-52.037-64.286-34.194l-3.757 2.801-145.291 120.794v-173.141c0-47.128-38.205-85.333-85.333-85.333h-640c-47.128 0-85.333 38.205-85.333 85.333v597.333c0 47.128 38.205 85.333 85.333 85.333h640zM725.333 746.667h-640v-597.333h640v597.333zM395.603 610.804l152.202-89.158c56.269-32.962 56.269-114.299 0-147.261l-152.202-89.158c-56.887-33.324-128.465 7.701-128.465 73.63v178.315c0 65.929 71.578 106.954 128.465 73.63zM941.151 574.991l-130.485-108.473v-36.949l130.485-108.505v253.927zM352.472 537.173v-178.315l152.202 89.158-152.202 89.158z" />
<glyph unicode="&#xe931;" glyph-name="icon_dd_report" d="M512 960c282.77 0 512-229.23 512-512s-229.23-512-512-512c-282.77 0-512 229.23-512 512s229.23 512 512 512zM512 874.667c-235.641 0-426.667-191.025-426.667-426.667s191.025-426.667 426.667-426.667c235.641 0 426.667 191.025 426.667 426.667s-191.025 426.667-426.667 426.667zM512 277.333c28.277 0 51.2-22.923 51.2-51.2s-22.923-51.2-51.2-51.2c-28.277 0-51.2 22.923-51.2 51.2s22.923 51.2 51.2 51.2zM512 704c23.564 0 42.667-19.103 42.667-42.667v-298.667c0-23.564-19.103-42.667-42.667-42.667s-42.667 19.103-42.667 42.667v298.667c0 23.564 19.103 42.667 42.667 42.667z" />
<glyph unicode="&#xe932;" glyph-name="icon_dd_set" d="M485.333 951.205c16.501 9.527 36.832 9.527 53.333 0v0l395.788-228.508c16.501-9.527 26.667-27.134 26.667-46.188v0-457.017c0-19.054-10.165-36.661-26.667-46.188v0l-395.788-228.508c-16.501-9.527-36.832-9.527-53.333 0v0l-395.788 228.508c-16.501 9.527-26.667 27.134-26.667 46.188v0 457.017c0 19.054 10.165 36.661 26.667 46.188v0zM512 868.096l-363.819-210.048v-420.053l363.819-210.048 363.776 210.048v420.053l-363.776 210.048zM512 653.302c113.385 0 205.302-91.917 205.302-205.302s-91.917-205.302-205.302-205.302c-113.385 0-205.302 91.917-205.302 205.302s91.917 205.302 205.302 205.302zM512 567.969c-66.257 0-119.969-53.712-119.969-119.969s53.712-119.969 119.969-119.969c66.257 0 119.969 53.712 119.969 119.969s-53.712 119.969-119.969 119.969z" />
<glyph unicode="&#xe933;" glyph-name="icon_dd_take-pic" d="M661.505 917.333c60.5 0 112.359-42.276 125.066-100.739l1.382-7.39 3.087-19.87h104.96c65.643 0 119.745-49.413 127.139-113.072l0.644-7.407 0.217-7.521v-554.667c0-68.168-53.287-123.89-120.479-127.783l-7.521-0.217h-768c-68.168 0-123.89 53.287-127.783 120.479l-0.217 7.521v554.667c0 68.168 53.287 123.89 120.479 127.783l7.521 0.217h147.584l3.129 19.87c8.984 57.168 54.951 100.521 111.201 107.226l7.732 0.685 7.515 0.218h256.344zM661.505 832h-256.344c-19.391 0-36.119-13.029-41.143-31.356l-1.007-4.688-6.705-42.667-0.388-3.302-0.13-3.322-0.287-4.976c-2.275-19.587-17.816-35.129-37.404-37.404l-4.976-0.287h-185.123c-21.881 0-39.915-16.471-42.38-37.691l-0.287-4.976v-554.667c0-21.881 16.471-39.915 37.691-42.38l4.976-0.287h768c21.881 0 39.915 16.471 42.38 37.691l0.287 4.976v554.667c0 21.881-16.471 39.915-37.682 42.38l-4.974 0.287-142.444-0.037c-21.873-0.006-39.907 16.449-42.387 37.659l-0.291 4.974-0.133 3.336-0.396 3.358-6.705 42.667c-3.261 20.752-21.142 36.043-42.149 36.043zM533.333 618.667c129.603 0 234.667-105.064 234.667-234.667s-105.064-234.667-234.667-234.667c-129.603 0-234.667 105.064-234.667 234.667s105.064 234.667 234.667 234.667zM533.333 533.333c-82.475 0-149.333-66.859-149.333-149.333s66.859-149.333 149.333-149.333c82.475 0 149.333 66.859 149.333 149.333s-66.859 149.333-149.333 149.333zM256 661.333c23.564 0 42.667-19.103 42.667-42.667s-19.103-42.667-42.667-42.667h-42.667c-23.564 0-42.667 19.103-42.667 42.667s19.103 42.667 42.667 42.667h42.667z" />
<glyph unicode="&#xe934;" glyph-name="icon_dd_transfer" d="M896 234.667c70.692 0 128-57.308 128-128s-57.308-128-128-128c-70.692 0-128 57.308-128 128s57.308 128 128 128zM896 149.333c-23.564 0-42.667-19.103-42.667-42.667s19.103-42.667 42.667-42.667c23.564 0 42.667 19.103 42.667 42.667s-19.103 42.667-42.667 42.667zM682.667 832v-85.333h-128v-256h128v-85.333h-128v-256h128v-85.333h-213.333v341.333h-170.667v85.333h170.667v341.333h213.333zM128 576c70.692 0 128-57.308 128-128s-57.308-128-128-128c-70.692 0-128 57.308-128 128s57.308 128 128 128zM896 576c70.692 0 128-57.308 128-128s-57.308-128-128-128c-70.692 0-128 57.308-128 128s57.308 128 128 128zM128 490.667c-23.564 0-42.667-19.103-42.667-42.667s19.103-42.667 42.667-42.667c23.564 0 42.667 19.103 42.667 42.667s-19.103 42.667-42.667 42.667zM896 490.667c-23.564 0-42.667-19.103-42.667-42.667s19.103-42.667 42.667-42.667c23.564 0 42.667 19.103 42.667 42.667s-19.103 42.667-42.667 42.667zM896 917.333c70.692 0 128-57.308 128-128s-57.308-128-128-128c-70.692 0-128 57.308-128 128s57.308 128 128 128zM896 832c-23.564 0-42.667-19.103-42.667-42.667s19.103-42.667 42.667-42.667c23.564 0 42.667 19.103 42.667 42.667s-19.103 42.667-42.667 42.667z" />
<glyph unicode="&#xe935;" glyph-name="icon_dd_wuliu" d="M960 874.667c35.346 0 64-28.654 64-64v-597.333c0-35.346-28.654-64-64-64l-22.845-0.002-0.176 1.193c1.111-7.346 1.688-14.868 1.688-22.524 0-82.475-66.859-149.333-149.333-149.333s-149.333 66.859-149.333 149.333c0 7.656 0.576 15.178 1.688 22.524l-0.176-1.193h-259.024l-0.176 1.193c1.111-7.346 1.688-14.868 1.688-22.524 0-82.475-66.859-149.333-149.333-149.333s-149.333 66.859-149.333 149.333c0 7.656 0.576 15.178 1.688 22.524l-0.176-1.193-22.845 0.002c-33.267 0-60.606 25.382-63.707 57.836l-0.293 6.164v254.883c0 12.456 3.634 24.595 10.389 34.955l3.635 5.025 137.427 171.783c10.796 13.495 26.524 21.977 43.541 23.696l6.435 0.324h97.24v106.667c0 35.346 28.654 64 64 64h597.333zM789.333 192c-35.346 0-64-28.654-64-64s28.654-64 64-64c35.346 0 64 28.654 64 64s-28.654 64-64 64zM234.667 192c-35.346 0-64-28.654-64-64s28.654-64 64-64c35.346 0 64 28.654 64 64s-28.654 64-64 64zM938.667 789.333h-554.667v-170.667h-172.373l-126.293-157.739-0.128-226.261 44.962 0.012-0.675-0.666c26.99 26.778 64.151 43.321 105.175 43.321 37.786 0 72.294-14.034 98.596-37.174l-0.378 0.331 8.482 2.972 25.012-8.797 318.455 0.012-0.675-0.666c26.99 26.778 64.151 43.321 105.175 43.321s78.185-16.542 105.175-43.321l-0.675 0.666 44.834-0.012v554.667zM362.667 567.467c18.851 0 34.133-15.282 34.133-34.133v-128c0-18.851-15.282-34.133-34.133-34.133h-213.333c-18.851 0-34.133 15.282-34.133 34.133v8c0 7.68 2.59 15.135 7.351 21.161l94.815 120c6.473 8.193 16.341 12.972 26.782 12.972h118.519zM328.533 499.2h-67.883l-47.189-59.733h115.072v59.733z" />
<glyph unicode="&#xe936;" glyph-name="icon_dd_yijiazhushou" d="M512 917.333c141.385 0 256-114.615 256-256 0-71.999-29.723-137.056-77.568-183.57 49.783-14.057 94.946-39.14 132.686-72.445l-396.452 0.015c-138.172 0-250.776-109.465-255.823-246.403l-0.177-9.597v-85.333h234.624l0.043-42.667c0-15.562 4.166-30.151 11.443-42.713l-331.443 0.046v170.667c0 156.252 104.99 287.982 248.273 328.493-47.883 46.45-77.606 111.508-77.606 183.507 0 141.385 114.615 256 256 256zM938.667 362.667c47.128 0 85.333-38.205 85.333-85.333v-85.333c-23.564 0-42.667-19.103-42.667-42.667s19.103-42.667 42.667-42.667v-42.667c0-47.128-38.205-85.333-85.333-85.333h-384c-47.128 0-85.333 38.205-85.333 85.333v42.667c23.564 0 42.667 19.103 42.667 42.667s-19.103 42.667-42.667 42.667v85.333c0 47.128 38.205 85.333 85.333 85.333h384zM938.667 277.333h-384v-32.597c24.477-21.94 40.431-53.042 42.449-87.882l0.217-7.521c0-30.297-10.526-58.135-28.12-80.057l-4.52-5.276h363.904l-4.477 5.276c-16.128 20.096-26.317 45.162-27.903 72.536l-0.217 7.521c0 34.958 14.014 66.643 36.73 89.743l5.937 5.702v32.555zM682.667 256c18.851 0 34.133-15.282 34.133-34.133v-102.4c0-18.851-15.282-34.133-34.133-34.133s-34.133 15.282-34.133 34.133v102.4c0 18.851 15.282 34.133 34.133 34.133zM512 832c-94.257 0-170.667-76.41-170.667-170.667s76.41-170.667 170.667-170.667c94.257 0 170.667 76.41 170.667 170.667s-76.41 170.667-170.667 170.667z" />
<glyph unicode="&#xe937;" glyph-name="icon_dongdong_emoji" d="M512 960c282.77 0 512-229.23 512-512s-229.23-512-512-512c-282.77 0-512 229.23-512 512s229.23 512 512 512zM512 874.667c-235.641 0-426.667-191.025-426.667-426.667s191.025-426.667 426.667-426.667c235.641 0 426.667 191.025 426.667 426.667s-191.025 426.667-426.667 426.667zM733.867 473.6c23.564 0 42.667-19.103 42.667-42.667 0-141.385-114.615-256-256-256s-256 114.615-256 256c0 23.564 19.103 42.667 42.667 42.667s42.667-19.103 42.667-42.667c0-94.257 76.41-170.667 170.667-170.667s170.667 76.41 170.667 170.667c0 23.564 19.103 42.667 42.667 42.667zM302.933 686.933c35.346 0 64-28.654 64-64s-28.654-64-64-64c-35.346 0-64 28.654-64 64s28.654 64 64 64zM729.6 686.933c35.346 0 64-28.654 64-64s-28.654-64-64-64c-35.346 0-64 28.654-64 64s28.654 64 64 64z" />
<glyph unicode="&#xe938;" glyph-name="icon_dongdong_keywords" d="M512 960c282.77 0 512-229.23 512-512s-229.23-512-512-512c-282.77 0-512 229.23-512 512s229.23 512 512 512zM512 874.667c-235.641 0-426.667-191.025-426.667-426.667s191.025-426.667 426.667-426.667c235.641 0 426.667 191.025 426.667 426.667s-191.025 426.667-426.667 426.667zM618.667 320c23.564 0 42.667-19.103 42.667-42.667s-19.103-42.667-42.667-42.667h-213.333c-23.564 0-42.667 19.103-42.667 42.667s19.103 42.667 42.667 42.667h213.333zM341.333 490.667c11.782 0 21.333-9.551 21.333-21.333v-42.667c0-11.782-9.551-21.333-21.333-21.333h-42.667c-11.782 0-21.333 9.551-21.333 21.333v42.667c0 11.782 9.551 21.333 21.333 21.333h42.667zM469.333 490.667c11.782 0 21.333-9.551 21.333-21.333v-42.667c0-11.782-9.551-21.333-21.333-21.333h-42.667c-11.782 0-21.333 9.551-21.333 21.333v42.667c0 11.782 9.551 21.333 21.333 21.333h42.667zM597.333 490.667c11.782 0 21.333-9.551 21.333-21.333v-42.667c0-11.782-9.551-21.333-21.333-21.333h-42.667c-11.782 0-21.333 9.551-21.333 21.333v42.667c0 11.782 9.551 21.333 21.333 21.333h42.667zM725.333 490.667c11.782 0 21.333-9.551 21.333-21.333v-42.667c0-11.782-9.551-21.333-21.333-21.333h-42.667c-11.782 0-21.333 9.551-21.333 21.333v42.667c0 11.782 9.551 21.333 21.333 21.333h42.667zM341.333 618.667c11.782 0 21.333-9.551 21.333-21.333v-42.667c0-11.782-9.551-21.333-21.333-21.333h-42.667c-11.782 0-21.333 9.551-21.333 21.333v42.667c0 11.782 9.551 21.333 21.333 21.333h42.667zM469.333 618.667c11.782 0 21.333-9.551 21.333-21.333v-42.667c0-11.782-9.551-21.333-21.333-21.333h-42.667c-11.782 0-21.333 9.551-21.333 21.333v42.667c0 11.782 9.551 21.333 21.333 21.333h42.667zM597.333 618.667c11.782 0 21.333-9.551 21.333-21.333v-42.667c0-11.782-9.551-21.333-21.333-21.333h-42.667c-11.782 0-21.333 9.551-21.333 21.333v42.667c0 11.782 9.551 21.333 21.333 21.333h42.667zM725.333 618.667c11.782 0 21.333-9.551 21.333-21.333v-42.667c0-11.782-9.551-21.333-21.333-21.333h-42.667c-11.782 0-21.333 9.551-21.333 21.333v42.667c0 11.782 9.551 21.333 21.333 21.333h42.667z" />
<glyph unicode="&#xe939;" glyph-name="icon_dongdong_kuaijieduanyu" d="M512 960c282.77 0 512-229.23 512-512s-229.23-512-512-512c-282.77 0-512 229.23-512 512s229.23 512 512 512zM512 874.667c-235.641 0-426.667-191.025-426.667-426.667s191.025-426.667 426.667-426.667c235.641 0 426.667 191.025 426.667 426.667s-191.025 426.667-426.667 426.667zM759.467 686.933c23.564 0 42.667-19.103 42.667-42.667v0-392.533c0-37.858-45.64-56.963-72.609-30.395v0l-76.127 74.982-388.864-0.024c-21.881 0-39.915 16.471-42.38 37.691v0l-0.287 4.976v305.304c0 23.564 19.103 42.667 42.667 42.667v0zM716.757 601.6h-409.6v-219.947l363.76-0.024c9.337 0 18.363-3.061 25.731-8.632v0l4.211-3.639 15.897-15.652v247.893zM426.667 533.333c23.564 0 42.667-19.103 42.667-42.667s-19.103-42.667-42.667-42.667c-23.564 0-42.667 19.103-42.667 42.667s19.103 42.667 42.667 42.667zM597.333 533.333c23.564 0 42.667-19.103 42.667-42.667s-19.103-42.667-42.667-42.667c-23.564 0-42.667 19.103-42.667 42.667s19.103 42.667 42.667 42.667z" />
<glyph unicode="&#xe93a;" glyph-name="icon_dongdong_zhankai" d="M512 960c282.77 0 512-229.23 512-512s-229.23-512-512-512c-282.77 0-512 229.23-512 512s229.23 512 512 512zM512 874.667c-235.641 0-426.667-191.025-426.667-426.667s191.025-426.667 426.667-426.667c235.641 0 426.667 191.025 426.667 426.667s-191.025 426.667-426.667 426.667zM512 704c23.564 0 42.667-19.103 42.667-42.667v-170.667h170.667c23.564 0 42.667-19.103 42.667-42.667s-19.103-42.667-42.667-42.667h-170.667v-170.667c0-23.564-19.103-42.667-42.667-42.667s-42.667 19.103-42.667 42.667v170.709l-170.667-0.043c-23.564 0-42.667 19.103-42.667 42.667s19.103 42.667 42.667 42.667l170.667 0.043v170.624c0 23.564 19.103 42.667 42.667 42.667z" />
<glyph unicode="&#xe93b;" glyph-name="icon_mai_delete" d="M224 0c-17.673 0-32 14.327-32 32v512c0 17.673 14.327 32 32 32s32-14.327 32-32l-0.008-480h512l0.008 480c0 17.673 14.327 32 32 32s32-14.327 32-32v-512c0-15.709-11.32-28.775-26.248-31.484l-5.752-0.516h-576zM608 576c17.673 0 32-14.327 32-32v-384c0-17.673-14.327-32-32-32s-32 14.327-32 32v384c0 17.673 14.327 32 32 32zM416 576c17.673 0 32-14.327 32-32v-384c0-17.673-14.327-32-32-32s-32 14.327-32 32v384c0 17.673 14.327 32 32 32zM574.161 928c11.719 0 22.329-6.382 27.914-16.35l2.356-5.27 58.417-170.38h298.148c15.709 0 28.775-11.32 31.484-26.248l0.516-5.752c0-15.709-11.32-28.775-26.248-31.484l-5.752-0.516h-895.98c-17.673 0-32 14.327-32 32 0 15.709 11.32 28.775 26.248 31.484l5.752 0.516h295.88l56.746 170.119c3.733 11.2 13.251 19.276 24.568 21.354l5.79 0.526h126.161zM551.296 864h-80.256l-42.696-128h166.848l-43.896 128z" />
<glyph unicode="&#xe93c;" glyph-name="icon_work_add" d="M512 903.111c31.419 0 56.889-25.47 56.889-56.889v-341.333h341.333c31.419 0 56.889-25.47 56.889-56.889s-25.47-56.889-56.889-56.889h-341.39l0.057-341.333c0-31.419-25.47-56.889-56.889-56.889s-56.889 25.47-56.889 56.889l-0.057 341.333h-341.276c-31.419 0-56.889 25.47-56.889 56.889s25.47 56.889 56.889 56.889h341.333v341.333c0 31.419 25.47 56.889 56.889 56.889z" />
<glyph unicode="&#xe93d;" glyph-name="icon_work_scan" d="M113.778 305.778c31.419 0 56.889-25.47 56.889-56.889v-142.222h170.667c31.419 0 56.889-25.47 56.889-56.889s-25.47-56.889-56.889-56.889h-227.556c-31.419 0-56.889 25.47-56.889 56.889v199.111c0 31.419 25.47 56.889 56.889 56.889zM910.222 334.222c31.419 0 56.889-25.47 56.889-56.889v-227.556c0-31.419-25.47-56.889-56.889-56.889h-227.556c-31.419 0-56.889 25.47-56.889 56.889s25.47 56.889 56.889 56.889h170.667v170.667c0 31.419 25.47 56.889 56.889 56.889zM924.444 504.889c23.564 0 42.667-19.103 42.667-42.667s-19.103-42.667-42.667-42.667h-824.889c-23.564 0-42.667 19.103-42.667 42.667s19.103 42.667 42.667 42.667h824.889zM910.222 903.111c31.419 0 56.889-25.47 56.889-56.889v-227.556c0-31.419-25.47-56.889-56.889-56.889s-56.889 25.47-56.889 56.889v170.667h-170.667c-31.419 0-56.889 25.47-56.889 56.889s25.47 56.889 56.889 56.889h227.556zM341.333 903.111c31.419 0 56.889-25.47 56.889-56.889s-25.47-56.889-56.889-56.889h-170.667v-170.667c0-31.419-25.47-56.889-56.889-56.889s-56.889 25.47-56.889 56.889v227.556c0 31.419 25.47 56.889 56.889 56.889h227.556z" />
<glyph unicode="&#xe93e;" glyph-name="icon_work_search" d="M85.011 504.889c-15.709 0-28.444 12.735-28.444 28.444 0 8.334 3.655 16.248 9.999 21.653l228.198 194.402c11.958 10.187 29.911 8.752 40.098-3.207 4.384-5.146 6.792-11.685 6.792-18.446l-0.017-109.055 568.585-0.013c31.419 0 56.889-25.47 56.889-56.889s-25.47-56.889-56.889-56.889h-825.211zM939.735 391.111c15.709 0 28.444-12.735 28.444-28.444 0-8.334-3.655-16.248-9.998-21.652l-228.187-194.4c-11.958-10.188-29.911-8.752-40.099 3.206-4.384 5.146-6.792 11.686-6.792 18.446l0.005 109.055-569.332 0.011c-31.419 0-56.889 25.47-56.889 56.889s25.47 56.889 56.889 56.889h825.958z" />
<glyph unicode="&#xe93f;" glyph-name="icon_work_search1" d="M512 903.111c251.351 0 455.111-203.76 455.111-455.111s-203.76-455.111-455.111-455.111c-251.351 0-455.111 203.76-455.111 455.111s203.76 455.111 455.111 455.111zM391.32 649.133c-22.216 22.216-58.237 22.216-80.453 0s-22.216-58.237 0-80.453v0l120.692-120.68-120.692-120.68c-20.508-20.508-22.085-52.777-4.733-75.094l4.733-5.359c22.216-22.216 58.237-22.216 80.453 0v0l120.68 120.692 120.68-120.692c20.508-20.508 52.777-22.085 75.094-4.733l5.359 4.733c22.216 22.216 22.216 58.237 0 80.453v0l-120.692 120.68 120.692 120.68c20.508 20.508 22.085 52.777 4.733 75.094l-4.733 5.359c-22.216 22.216-58.237 22.216-80.453 0v0l-120.68-120.692z" />
<glyph unicode="&#xe940;" glyph-name="icon_work_search2" d="M190.188 850.265l321.814-321.77 321.81 321.77c22.216 22.216 58.237 22.216 80.453 0s22.216-58.237 0-80.453l-321.765-321.814 321.765-321.81c22.216-22.216 22.216-58.237 0-80.453s-58.237-22.216-80.453 0l-321.81 321.765-321.814-321.765c-22.216-22.216-58.237-22.216-80.453 0s-22.216 58.237 0 80.453l321.77 321.81-321.77 321.814c-22.216 22.216-22.216 58.237 0 80.453s58.237 22.216 80.453 0z" />
<glyph unicode="&#xe941;" glyph-name="icon_work_search3" d="M455.111 960c251.351 0 455.111-203.76 455.111-455.111 0-105.168-35.672-202.005-95.576-279.070l149.606-149.618c22.216-22.216 22.216-58.237 0-80.453s-58.237-22.216-80.453 0l-149.618 149.606c-77.065-59.904-173.902-95.576-279.070-95.576-251.351 0-455.111 203.76-455.111 455.111s203.76 455.111 455.111 455.111zM455.111 846.222c-188.513 0-341.333-152.82-341.333-341.333s152.82-341.333 341.333-341.333c188.513 0 341.333 152.82 341.333 341.333s-152.82 341.333-341.333 341.333z" />
<glyph unicode="&#xe942;" glyph-name="selete" d="M170.667-3.031c-31.419 0-56.889 25.47-56.889 56.889v455.111c0 31.419 25.47 56.889 56.889 56.889s56.889-25.47 56.889-56.889v-398.206h568.889v398.206c0 31.419 25.47 56.889 56.889 56.889s56.889-25.47 56.889-56.889v-455.111c0-29.175-21.961-53.22-50.254-56.506l-6.634-0.383h-682.667zM398.222 565.858c31.419 0 56.889-25.47 56.889-56.889v-227.556c0-31.419-25.47-56.889-56.889-56.889s-56.889 25.47-56.889 56.889v227.556c0 31.419 25.47 56.889 56.889 56.889zM625.778 565.858c31.419 0 56.889-25.47 56.889-56.889v-227.556c0-31.419-25.47-56.889-56.889-56.889s-56.889 25.47-56.889 56.889v227.556c0 31.419 25.47 56.889 56.889 56.889zM624.143 903.111c18.946 0 36.479-9.414 46.988-24.817l3.601-6.050 42.637-82.91h192.853c29.175 0 53.22-21.961 56.506-50.254l0.383-6.634c0-29.175-21.961-53.22-50.254-56.506l-6.634-0.383h-227.556c-18.946 0-36.479 9.414-46.988 24.817l-3.601 6.050-42.652 82.91h-156.046l-41.163-82.33c-8.566-17.132-25.082-28.654-43.78-31.003l-7.103-0.444h-227.556c-31.419 0-56.889 25.47-56.889 56.889 0 29.175 21.961 53.22 50.254 56.506l6.634 0.383h192.341l41.22 82.33c8.566 17.132 25.082 28.654 43.78 31.003l7.103 0.444h225.921z" />
<glyph unicode="&#xe943;" glyph-name="Shape" d="M540.444 163.556c47.128 0 85.333-38.205 85.333-85.333s-38.205-85.333-85.333-85.333c-47.128 0-85.333 38.205-85.333 85.333s38.205 85.333 85.333 85.333zM540.444 528.987c47.128 0 85.333-38.205 85.333-85.333s-38.205-85.333-85.333-85.333c-47.128 0-85.333 38.205-85.333 85.333s38.205 85.333 85.333 85.333zM540.444 903.111c47.128 0 85.333-38.205 85.333-85.333s-38.205-85.333-85.333-85.333c-47.128 0-85.333 38.205-85.333 85.333s38.205 85.333 85.333 85.333z" />
<glyph unicode="&#xe944;" glyph-name="Shape1" d="M785.659 33.115c22.216-22.216 22.216-58.237 0-80.453-20.508-20.508-52.777-22.085-75.094-4.733l-5.359 4.733-458.606 458.606c-20.508 20.508-22.085 52.777-4.733 75.094l4.733 5.359 451.616 451.616c22.216 22.216 58.237 22.216 80.453 0 20.508-20.508 22.085-52.777 4.733-75.094l-4.733-5.359-411.377-411.357 418.367-418.412z" />
<glyph unicode="&#xe945;" glyph-name="Shape2" d="M957.752 903.111c3.71 0 7.412-0.363 11.051-1.084 30.819-6.103 50.856-36.035 44.754-66.855-39.827-201.11-150.118-323.873-330.871-368.288l-0.020-322.097c0-21.392-12.001-40.976-31.061-50.688l-227.556-115.951c-27.994-14.264-62.251-3.134-76.516 24.86-4.076 7.999-6.201 16.85-6.201 25.828l-0.020 438.048c-180.753 44.415-291.043 167.177-330.871 368.286-0.721 3.64-1.084 7.341-1.084 11.052 0 29.175 21.961 53.22 50.255 56.506l6.634 0.383h891.504zM884.053 789.333h-744.164l2.699-8.007c38.087-106.937 106.924-170.74 211.968-200.29l13.907-3.661 86.624-21.285 0.024-434.347 113.778 57.97 0.026 376.378 86.622 21.285c112.908 27.744 186.133 92.365 225.874 203.949l2.642 8.009z" />
<glyph unicode="&#xe946;" glyph-name="shoujizaixian" d="M796.444 903.111c31.419 0 56.889-25.47 56.889-56.889v-796.444c0-31.419-25.47-56.889-56.889-56.889h-568.889c-31.419 0-56.889 25.47-56.889 56.889v796.444c0 31.419 25.47 56.889 56.889 56.889h568.889zM739.556 789.333h-455.111v-682.667h455.111v682.667zM512 277.333c31.419 0 56.889-25.47 56.889-56.889s-25.47-56.889-56.889-56.889c-31.419 0-56.889 25.47-56.889 56.889s25.47 56.889 56.889 56.889z" />
<glyph unicode="&#xe947;" glyph-name="shuaxin" d="M512 960c282.77 0 512-229.23 512-512 0-28.949-27.972-48.979-54.802-40.916l-4.717 1.718-226.739 97.484c-21.648 9.307-31.652 34.402-22.345 56.050 8.643 20.102 30.897 30.164 51.365 24.047l4.685-1.702 161.93-69.61-0.482 3.28c-32.908 198.352-202.637 350.48-408.951 356.15l-11.943 0.164c-235.641 0-426.667-191.025-426.667-426.667s191.025-426.667 426.667-426.667c105.35 0 204.647 38.267 282.049 106.514 17.675 15.584 44.637 13.89 60.221-3.785s13.89-44.637-3.785-60.221c-92.843-81.863-212.152-127.841-338.485-127.841-282.77 0-512 229.23-512 512s229.23 512 512 512z" />
<glyph unicode="&#xe948;" glyph-name="xuanzhong" d="M918.733 773.443c21.187 21.187 55.538 21.187 76.725 0s21.187-55.538 0-76.725v0l-588.487-588.487c-8.149-8.149-18.245-13.164-28.791-15.044l-6.369-0.752h-6.405c-12.799 0.752-25.381 6.018-35.16 15.796l-314.357 314.357c-21.187 21.187-21.187 55.538 0 76.725s55.538 21.187 76.725 0l275.968-275.967z" />
<glyph unicode="&#xe949;" glyph-name="add-circle" d="M512-46.933c273.344 0 494.933 221.589 494.933 494.933s-221.589 494.933-494.933 494.933c-273.344 0-494.933-221.589-494.933-494.933s221.589-494.933 494.933-494.933zM512-64c-282.77 0-512 229.23-512 512s229.23 512 512 512c282.77 0 512-229.23 512-512s-229.23-512-512-512zM494.933 465.067v273.067c0 9.426 7.641 17.067 17.067 17.067s17.067-7.641 17.067-17.067v-273.067h273.067c9.426 0 17.067-7.641 17.067-17.067s-7.641-17.067-17.067-17.067h-273.067v-273.067c0-9.426-7.641-17.067-17.067-17.067s-17.067 7.641-17.067 17.067v273.067h-273.067c-9.426 0-17.067 7.641-17.067 17.067s7.641 17.067 17.067 17.067h273.067z" />
<glyph unicode="&#xe94a;" glyph-name="add" d="M483.556 476.444v455.111c0 15.709 12.735 28.444 28.444 28.444s28.444-12.735 28.444-28.444v-455.111h455.111c15.709 0 28.444-12.735 28.444-28.444s-12.735-28.444-28.444-28.444h-455.111v-455.111c0-15.709-12.735-28.444-28.444-28.444s-28.444 12.735-28.444 28.444v455.111h-455.111c-15.709 0-28.444 12.735-28.444 28.444s12.735 28.444 28.444 28.444h455.111z" />
<glyph unicode="&#xe94b;" glyph-name="arrow-down" d="M927.022 698.654c18.432 17.918 47.9 17.502 65.819-0.931s17.502-47.9-0.931-65.819l-462.914-450.007c-18.248-17.739-47.361-17.534-65.357 0.462l-450.007 450.007c-18.177 18.177-18.177 47.648 0 65.825s47.648 18.177 65.825 0l417.556-417.556 430.008 418.018z" />
<glyph unicode="&#xe94c;" glyph-name="arrow-left" d="M766.732 41.076c18.567-18.567 18.567-48.669 0-67.236s-48.669-18.567-67.236 0l-442.227 442.227c-18.567 18.567-18.567 48.669 0 67.236l435.487 435.487c18.567 18.567 48.669 18.567 67.236 0s18.567-48.669 0-67.236l-401.869-401.869 408.609-408.609z" />
<glyph unicode="&#xe94d;" glyph-name="arrow-right" d="M257.268 851.554c-18.567 18.567-18.567 48.669 0 67.236s48.669 18.567 67.236 0l442.227-442.227c18.567-18.567 18.567-48.669 0-67.236l-435.487-435.487c-18.567-18.567-48.669-18.567-67.236 0s-18.567 48.669 0 67.236l401.869 401.869-408.609 408.609z" />
<glyph unicode="&#xe94e;" glyph-name="arrow-thin-down" d="M809.373 374.136c12.497 12.497 32.758 12.497 45.255 0s12.497-32.758 0-45.255l-322.457-322.457c-12.497-12.497-32.758-12.497-45.255 0l-317.543 317.543c-12.497 12.497-12.497 32.758 0 45.255s32.758 12.497 45.255 0l294.915-294.915 299.83 299.83zM539.279 40.286c0-17.673-14.327-32-32-32s-32 14.327-32 32v830.801c0 17.673 14.327 32 32 32s32-14.327 32-32v-830.801z" />
<glyph unicode="&#xe94f;" glyph-name="arrow-thin-left" d="M433.212 130.803c13.33-13.33 13.33-34.942 0-48.272s-34.942-13.33-48.272 0l-343.955 343.955c-13.33 13.33-13.33 34.942 0 48.272l338.712 338.712c13.33 13.33 34.942 13.33 48.272 0s13.33-34.942 0-48.272l-314.576-314.576 319.819-319.819zM77.105 418.903c-18.851 0-34.133 15.282-34.133 34.133s15.282 34.133 34.133 34.133h886.188c18.851 0 34.133-15.282 34.133-34.133s-15.282-34.133-34.133-34.133h-886.188z" />
<glyph unicode="&#xe950;" glyph-name="arrow-thin-right" d="M590.788 765.197c-13.33 13.33-13.33 34.942 0 48.272s34.942 13.33 48.272 0l343.955-343.955c13.33-13.33 13.33-34.942 0-48.272l-338.712-338.712c-13.33-13.33-34.942-13.33-48.272 0s-13.33 34.942 0 48.272l314.576 314.576-319.819 319.819zM946.895 477.097c18.851 0 34.133-15.282 34.133-34.133s-15.282-34.133-34.133-34.133h-886.188c-18.851 0-34.133 15.282-34.133 34.133s15.282 34.133 34.133 34.133h886.188z" />
<glyph unicode="&#xe951;" glyph-name="arrow-thin-up" d="M214.627 521.864c-12.497-12.497-32.758-12.497-45.255 0s-12.497 32.758 0 45.255l322.457 322.457c12.497 12.497 32.758 12.497 45.255 0l317.543-317.543c12.497-12.497 12.497-32.758 0-45.255s-32.758-12.497-45.255 0l-294.915 294.915-299.83-299.83zM484.721 855.714c0 17.673 14.327 32 32 32s32-14.327 32-32v-830.801c0-17.673-14.327-32-32-32s-32 14.327-32 32v830.801z" />
<glyph unicode="&#xe952;" glyph-name="arrow-up" d="M497.014 615.364l430.008-418.018c18.432-17.918 47.9-17.502 65.819 0.931s17.502 47.9-0.931 65.819l-462.914 450.007c-18.248 17.739-47.361 17.534-65.357-0.462l-450.007-450.007c-18.177-18.177-18.177-47.648 0-65.825s47.648-18.177 65.825 0l417.556 417.556z" />
<glyph unicode="&#xe953;" glyph-name="article" d="M204.8 806.4v-716.8h614.4v716.8h-614.4zM153.6 960h716.8c56.554 0 102.4-45.846 102.4-102.4v-819.2c0-56.554-45.846-102.4-102.4-102.4h-716.8c-56.554 0-102.4 45.846-102.4 102.4v819.2c0 56.554 45.846 102.4 102.4 102.4zM409.6 652.8h204.8c28.277 0 51.2-22.923 51.2-51.2s-22.923-51.2-51.2-51.2h-204.8c-28.277 0-51.2 22.923-51.2 51.2s22.923 51.2 51.2 51.2zM409.6 499.2h204.8c28.277 0 51.2-22.923 51.2-51.2s-22.923-51.2-51.2-51.2h-204.8c-28.277 0-51.2 22.923-51.2 51.2s22.923 51.2 51.2 51.2zM409.6 345.6h102.4c28.277 0 51.2-22.923 51.2-51.2s-22.923-51.2-51.2-51.2h-102.4c-28.277 0-51.2 22.923-51.2 51.2s22.923 51.2 51.2 51.2z" />
<glyph unicode="&#xe954;" glyph-name="bad" d="M512 0c247.424 0 448 200.576 448 448s-200.576 448-448 448c-247.424 0-448-200.576-448-448s200.576-448 448-448zM512-64c-282.77 0-512 229.23-512 512s229.23 512 512 512c282.77 0 512-229.23 512-512s-229.23-512-512-512zM384 576c0-35.346-28.654-64-64-64s-64 28.654-64 64c0 35.346 28.654 64 64 64s64-28.654 64-64zM768 576c0-35.346-28.654-64-64-64s-64 28.654-64 64c0 35.346 28.654 64 64 64s64-28.654 64-64zM295.098 246.627c-12.497-12.497-12.497-32.758 0-45.255s32.758-12.497 45.255 0c112.471 112.471 294.823 112.471 407.294 0 12.497-12.497 32.758-12.497 45.255 0s12.497 32.758 0 45.255c-137.465 137.465-360.339 137.465-497.803 0z" />
<glyph unicode="&#xe955;" glyph-name="bell" d="M849.625 185.738l-112.376 168.24c-3.124 4.677-4.791 10.175-4.791 15.799v250.755c0 131.471-106.578 238.049-238.049 238.049s-238.049-106.578-238.049-238.049v-251.020c0-5.65-1.683-11.173-4.834-15.863l-112.813-167.912h710.912zM494.408 887.026c147.18 0 266.494-119.313 266.494-266.494v-250.755l141.928-212.484h-817.497l142.581 212.219v251.020c0 147.18 119.313 266.494 266.494 266.494zM369.014 350.514c-7.855 0-14.222 6.368-14.222 14.222s6.368 14.222 14.222 14.222h374.858c7.855 0 14.222-6.368 14.222-14.222s-6.368-14.222-14.222-14.222h-374.858zM352.126 120.623c0 7.855 6.368 14.222 14.222 14.222s14.222-6.368 14.222-14.222c0-57.684 46.762-104.447 104.447-104.447s104.447 46.762 104.447 104.447c0 7.855 6.368 14.222 14.222 14.222s14.222-6.368 14.222-14.222c0-73.394-59.497-132.891-132.891-132.891s-132.891 59.497-132.891 132.891zM403.219 861.479c0-7.855 6.368-14.222 14.222-14.222s14.222 6.368 14.222 14.222c0 34.473 27.946 62.418 62.418 62.418s62.418-27.946 62.418-62.418c0-7.855 6.368-14.222 14.222-14.222s14.222 6.368 14.222 14.222c0 50.182-40.681 90.863-90.863 90.863s-90.863-40.681-90.863-90.863z" />
<glyph unicode="&#xe956;" glyph-name="bubble" d="M56.889 846.222v-619.457h765.64c7.656 0 14.988-3.086 20.34-8.56l124.242-127.087v755.104h-910.222zM28.444 169.877c-15.709 0-28.444 12.735-28.444 28.444v676.346c0 15.709 12.735 28.444 28.444 28.444h967.111c15.709 0 28.444-12.735 28.444-28.444v-853.333c0-25.497-30.96-38.116-48.784-19.884l-164.658 168.428h-782.114z" />
<glyph unicode="&#xe957;" glyph-name="bulb" d="M487.54-9.957c60.141 0.68 82.497 19.504 105.348 83.343 12.125 33.873 44.904 143.554 44.951 143.697 4.619 14.285 8.875 26.258 13.174 36.831 8.531 20.983 17.573 41.051 27.402 61.056 10.092 20.542 20.339 39.758 33.89 64.004 3.741 6.694 17.094 30.382 16.033 28.495 6.209 11.041 10.742 19.214 15.046 27.179 5.017 9.285 9.431 17.766 13.495 25.974 37.326 75.387 47.903 106.305 48.17 153.115 1.002 175.653-141.18 317.82-317.186 317.82-176.182 0-318.917-142.568-317.18-317.7 0.449-45.289 13.279-81.705 48.744-153.218 5.299-10.685 12.183-23.901 21.97-42.277 4.53-8.506 23.058-43.067 27.481-51.36 2.269-4.257 2.269-4.257 4.536-8.523 25.634-48.263 41.695-80.502 51.421-104.652 6.691-16.615 14.278-40.152 29.97-91.319l0.592-1.932c16.559-54.008 22.148-71.666 27.825-86.765 24.839-66.059 46.030-84.427 104.319-83.767zM487.862-38.4c-78.34-0.886-105.811 34.502-131.266 102.199-14.852 39.5-43.403 142.786-58.148 179.401-21.218 52.69-78.655 152.673-104.505 204.8s-51.103 104.992-51.704 165.574c-1.901 191.62 154.297 346.426 345.623 346.426s346.725-154.549 345.63-346.426c-0.346-60.557-20.918-104.57-51.123-165.574s-68.981-116.191-105.007-204.8c-18.072-44.449-33.352-111.397-57.694-179.401s-53.467-101.313-131.807-102.199zM487.822 820.622c7.855 0 14.222-6.368 14.222-14.222s-6.368-14.222-14.222-14.222c-98.184 0-177.778-79.594-177.778-177.778 0-7.855-6.368-14.222-14.222-14.222s-14.222 6.368-14.222 14.222c0 113.893 92.329 206.222 206.222 206.222zM321.422 254.578c-7.855 0-14.222 6.368-14.222 14.222s6.368 14.222 14.222 14.222h332.8c7.855 0 14.222-6.368 14.222-14.222s-6.368-14.222-14.222-14.222h-332.8zM347.022 152.178c-7.855 0-14.222 6.368-14.222 14.222s6.368 14.222 14.222 14.222h281.6c7.855 0 14.222-6.368 14.222-14.222s-6.368-14.222-14.222-14.222h-281.6zM372.622 49.778c-7.855 0-14.222 6.368-14.222 14.222s6.368 14.222 14.222 14.222h230.4c7.855 0 14.222-6.368 14.222-14.222s-6.368-14.222-14.222-14.222h-230.4z" />
<glyph unicode="&#xe958;" glyph-name="camera" d="M39.385 644.923v-551.385h945.231v551.385h-275.692c-18.072 0-33.826 12.3-38.209 29.832l-31.927 127.706h-253.576l-31.927-127.706c-4.383-17.533-20.136-29.832-38.209-29.832h-275.692zM315.077 684.308l35.656 142.622c2.192 8.766 10.068 14.916 19.104 14.916h284.326c9.036 0 16.913-6.15 19.104-14.916l35.656-142.622h295.385c10.876 0 19.692-8.817 19.692-19.692v-590.769c0-10.876-8.817-19.692-19.692-19.692h-984.615c-10.876 0-19.692 8.817-19.692 19.692v590.769c0 10.876 8.817 19.692 19.692 19.692h295.385zM512 211.692c97.882 0 177.231 79.349 177.231 177.231s-79.349 177.231-177.231 177.231c-97.882 0-177.231-79.349-177.231-177.231s79.349-177.231 177.231-177.231zM512 172.308c-119.633 0-216.615 96.982-216.615 216.615s96.982 216.615 216.615 216.615c119.633 0 216.615-96.982 216.615-216.615s-96.982-216.615-216.615-216.615zM59.077 763.077h196.923c10.876 0 19.692-8.817 19.692-19.692s-8.817-19.692-19.692-19.692h-196.923c-10.876 0-19.692 8.817-19.692 19.692s8.817 19.692 19.692 19.692z" />
<glyph unicode="&#xe959;" glyph-name="caret-bottom" d="M16.351 704h991.255c25.63-38.983 21.757-89.221-15.492-122.782l-400.056-359.444c-44.198-39.699-115.848-39.699-160.045 0l-400.056 359.444c-37.249 33.56-41.236 83.799-15.606 122.782z" />
<glyph unicode="&#xe95a;" glyph-name="caret-left" d="M768-47.649v991.255c-38.983 25.63-89.221 21.757-122.782-15.492l-359.444-400.056c-39.699-44.198-39.699-115.848 0-160.045l359.444-400.056c33.56-37.249 83.799-41.236 122.782-15.606z" />
<glyph unicode="&#xe95b;" glyph-name="caret-right" d="M256 943.649v-991.255c38.983-25.63 89.221-21.757 122.782 15.492l359.444 400.056c39.699 44.198 39.699 115.848 0 160.045l-359.444 400.056c-33.56 37.249-83.799 41.236-122.782 15.606z" />
<glyph unicode="&#xe95c;" glyph-name="caret-top" d="M16.351 192h991.255c25.63 38.983 21.757 89.221-15.492 122.782l-400.056 359.444c-44.198 39.699-115.848 39.699-160.045 0l-400.056-359.444c-37.249-33.56-41.236-83.799-15.606-122.782z" />
<glyph unicode="&#xe95d;" glyph-name="cart" d="M313.858 7.331c-44.648 0-80.842 36.194-80.842 80.842s36.194 80.842 80.842 80.842c44.648 0 80.842-36.194 80.842-80.842s-36.194-80.842-80.842-80.842zM313.858 67.567c11.381 0 20.607 9.226 20.607 20.607s-9.226 20.607-20.607 20.607c-11.381 0-20.607-9.226-20.607-20.607s9.226-20.607 20.607-20.607zM770.378 7.331c-44.648 0-80.842 36.194-80.842 80.842s36.194 80.842 80.842 80.842c44.648 0 80.842-36.194 80.842-80.842s-36.194-80.842-80.842-80.842zM770.378 67.567c11.381 0 20.607 9.226 20.607 20.607s-9.226 20.607-20.607 20.607c-11.381 0-20.607-9.226-20.607-20.607s9.226-20.607 20.607-20.607zM806.84 264.396l112.946 350.591c5.1 15.832-3.599 32.802-19.432 37.902-2.984 0.961-6.1 1.451-9.235 1.451h-477.722c-16.634 0-30.118 13.484-30.118 30.118s13.484 30.118 30.118 30.118h477.722c9.405 0 18.753-1.469 27.706-4.353 47.497-15.301 73.596-66.209 58.295-113.706l-119.673-371.474c-4.009-12.446-15.591-20.882-28.667-20.882h-491.778c-38.86 0-73.367 24.847-85.69 61.702l-199.491 596.636c-5.275 15.775 3.238 32.839 19.013 38.114s32.839-3.238 38.114-19.013l199.491-596.636c4.108-12.285 15.61-20.567 28.563-20.567h469.839z" />
<glyph unicode="&#xe95e;" glyph-name="chat-bubble-circle" d="M512-46.933c273.344 0 494.933 221.589 494.933 494.933s-221.589 494.933-494.933 494.933c-273.344 0-494.933-221.589-494.933-494.933s221.589-494.933 494.933-494.933zM512-64c-282.77 0-512 229.23-512 512s229.23 512 512 512c282.77 0 512-229.23 512-512s-229.23-512-512-512zM238.933 669.867v-337.541h459.384c4.593 0 8.993-1.852 12.204-5.136l74.545-76.252v418.929h-546.133zM221.867 298.193c-9.426 0-17.067 7.641-17.067 17.067v371.674c0 9.426 7.641 17.067 17.067 17.067h580.267c9.426 0 17.067-7.641 17.067-17.067v-477.867c0-15.298-18.576-22.87-29.27-11.931l-98.795 101.057h-469.268zM375.467 465.067c-18.851 0-34.133 15.282-34.133 34.133s15.282 34.133 34.133 34.133c18.851 0 34.133-15.282 34.133-34.133s-15.282-34.133-34.133-34.133zM512 465.067c-18.851 0-34.133 15.282-34.133 34.133s15.282 34.133 34.133 34.133c18.851 0 34.133-15.282 34.133-34.133s-15.282-34.133-34.133-34.133zM648.533 465.067c-18.851 0-34.133 15.282-34.133 34.133s15.282 34.133 34.133 34.133c18.851 0 34.133-15.282 34.133-34.133s-15.282-34.133-34.133-34.133z" />
<glyph unicode="&#xe95f;" glyph-name="chat-bubble" d="M118.154 763.077v-472.615h672.058c10.555 0 20.669-4.237 28.073-11.761l87.562-88.985v573.361h-787.692zM78.769 211.692c-21.752 0-39.385 17.633-39.385 39.385v551.385c0 21.752 17.633 39.385 39.385 39.385h866.462c21.752 0 39.385-17.633 39.385-39.385v-708.923c0-35.241-42.74-52.743-67.457-27.624l-143.446 145.778h-694.942zM275.692 448c-43.503 0-78.769 35.266-78.769 78.769s35.266 78.769 78.769 78.769c43.503 0 78.769-35.266 78.769-78.769s-35.266-78.769-78.769-78.769zM512 448c-43.503 0-78.769 35.266-78.769 78.769s35.266 78.769 78.769 78.769c43.503 0 78.769-35.266 78.769-78.769s-35.266-78.769-78.769-78.769zM748.308 448c-43.503 0-78.769 35.266-78.769 78.769s35.266 78.769 78.769 78.769c43.503 0 78.769-35.266 78.769-78.769s-35.266-78.769-78.769-78.769z" />
<glyph unicode="&#xe960;" glyph-name="chat" d="M265.481 637.63v-466.781h606.026c12.92 0 25.455-4.398 35.543-12.47l79.024-63.232v542.482h-720.593zM246.519 675.556h758.519c10.473 0 18.963-8.49 18.963-18.963v-600.905c0-10.473-8.49-18.963-18.963-18.963-4.307 0-8.485 1.466-11.848 4.157l-109.834 87.885c-3.363 2.691-7.541 4.157-11.848 4.157h-624.989c-10.473 0-18.963 8.49-18.963 18.963v504.707c0 10.473 8.49 18.963 18.963 18.963zM625.778 353.185c-31.419 0-56.889 25.47-56.889 56.889s25.47 56.889 56.889 56.889c31.419 0 56.889-25.47 56.889-56.889s-25.47-56.889-56.889-56.889zM625.778 391.111c10.473 0 18.963 8.49 18.963 18.963s-8.49 18.963-18.963 18.963c-10.473 0-18.963-8.49-18.963-18.963s8.49-18.963 18.963-18.963zM815.407 353.185c-31.419 0-56.889 25.47-56.889 56.889s25.47 56.889 56.889 56.889c31.419 0 56.889-25.47 56.889-56.889s-25.47-56.889-56.889-56.889zM815.407 391.111c10.473 0 18.963 8.49 18.963 18.963s-8.49 18.963-18.963 18.963c-10.473 0-18.963-8.49-18.963-18.963s8.49-18.963 18.963-18.963zM436.148 353.185c-31.419 0-56.889 25.47-56.889 56.889s25.47 56.889 56.889 56.889c31.419 0 56.889-25.47 56.889-56.889s-25.47-56.889-56.889-56.889zM436.148 391.111c10.473 0 18.963 8.49 18.963 18.963s-8.49 18.963-18.963 18.963c-10.473 0-18.963-8.49-18.963-18.963s8.49-18.963 18.963-18.963zM644.741 827.259v-95.171c0-10.473 8.49-18.963 18.963-18.963s18.963 8.49 18.963 18.963v114.134c0 10.473-8.49 18.963-18.963 18.963h-644.741c-10.473 0-18.963-8.49-18.963-18.963v-507.624c0-17.439 21.556-25.632 33.139-12.595l64.33 72.402h73.476c10.473 0 18.963 8.49 18.963 18.963s-8.49 18.963-18.963 18.963h-81.994c-5.418 0-10.577-2.317-14.176-6.368l-36.849-41.473v438.769h606.815z" />
<glyph unicode="&#xe961;" glyph-name="check-outline" d="M512 21.333c235.641 0 426.667 191.025 426.667 426.667s-191.025 426.667-426.667 426.667c-235.641 0-426.667-191.025-426.667-426.667s191.025-426.667 426.667-426.667zM512-64c-282.77 0-512 229.23-512 512s229.23 512 512 512c282.77 0 512-229.23 512-512s-229.23-512-512-512zM412.026 356.602l392.209 392.209c16.662 16.662 43.677 16.662 60.34 0s16.662-43.677 0-60.34l-422.378-422.378c-16.662-16.662-43.677-16.662-60.34 0l-181.019 181.019c-16.662 16.662-16.662 43.677 0 60.34s43.677 16.662 60.34 0l150.849-150.849z" />
<glyph unicode="&#xe962;" glyph-name="check-round" d="M341.24 233.954l546.493 546.493c23.217 23.217 60.859 23.217 84.076 0s23.217-60.859 0-84.076l-588.531-588.531c-11.608-11.608-26.823-17.413-42.038-17.413s-30.429 5.804-42.038 17.413l-252.227 252.227c-23.217 23.217-23.217 60.859 0 84.076s60.859 23.217 84.076 0l210.189-210.189z" />
<glyph unicode="&#xe963;" glyph-name="check" d="M947.367 752.92c11.308 10.904 29.316 10.577 40.22-0.732s10.577-29.315-0.732-40.22l-589.969-568.889c-11.019-10.625-28.47-10.625-39.488 0l-320.253 308.81c-11.308 10.904-11.636 28.912-0.732 40.22s28.911 11.636 40.22 0.732l300.509-289.771 570.225 549.85z" />
<glyph unicode="&#xe964;" glyph-name="clock-bold" d="M512 89.6c197.939 0 358.4 160.461 358.4 358.4s-160.461 358.4-358.4 358.4c-197.939 0-358.4-160.461-358.4-358.4s160.461-358.4 358.4-358.4zM512-64c-282.77 0-512 229.23-512 512s229.23 512 512 512c282.77 0 512-229.23 512-512s-229.23-512-512-512zM665.6 448c28.277 0 51.2-22.923 51.2-51.2s-22.923-51.2-51.2-51.2h-204.8v256c0 28.277 22.923 51.2 51.2 51.2s51.2-22.923 51.2-51.2v-153.6h102.4z" />
<glyph unicode="&#xe965;" glyph-name="clock-fill" d="M512-64c-282.77 0-512 229.23-512 512s229.23 512 512 512c282.77 0 512-229.23 512-512s-229.23-512-512-512zM512 448v256c0 28.277-22.923 51.2-51.2 51.2s-51.2-22.923-51.2-51.2v-307.2c0-28.277 22.923-51.2 51.2-51.2h307.2c28.277 0 51.2 22.923 51.2 51.2s-22.923 51.2-51.2 51.2h-256z" />
<glyph unicode="&#xe966;" glyph-name="clock" d="M512 21.333c235.641 0 426.667 191.025 426.667 426.667s-191.025 426.667-426.667 426.667c-235.641 0-426.667-191.025-426.667-426.667s191.025-426.667 426.667-426.667zM512-64c-282.77 0-512 229.23-512 512s229.23 512 512 512c282.77 0 512-229.23 512-512s-229.23-512-512-512zM469.333 704c23.564 0 42.667-19.103 42.667-42.667v-256c0-23.564-19.103-42.667-42.667-42.667s-42.667 19.103-42.667 42.667v256c0 23.564 19.103 42.667 42.667 42.667zM469.333 448h256c23.564 0 42.667-19.103 42.667-42.667s-19.103-42.667-42.667-42.667h-256c-23.564 0-42.667 19.103-42.667 42.667s19.103 42.667 42.667 42.667z" />
<glyph unicode="&#xe967;" glyph-name="close-fill" d="M572.952 438.768l202.801 202.801c14.282 14.282 14.282 37.438 0 51.72s-37.438 14.282-51.72 0l-202.801-202.801-202.801 202.801c-14.282 14.282-37.438 14.282-51.72 0s-14.282-37.438 0-51.72l202.801-202.801-202.801-202.801c-14.282-14.282-14.282-37.438 0-51.72s37.438-14.282 51.72 0l202.801 202.801 202.801-202.801c14.282-14.282 37.438-14.282 51.72 0s14.282 37.438 0 51.72l-202.801 202.801zM512-64c-282.77 0-512 229.23-512 512s229.23 512 512 512c282.77 0 512-229.23 512-512s-229.23-512-512-512z" />
<glyph unicode="&#xe968;" glyph-name="close-outline" d="M512-32c-265.097 0-480 214.903-480 480s214.903 480 480 480c265.097 0 480-214.903 480-480s-214.903-480-480-480zM512 32c229.75 0 416 186.25 416 416s-186.25 416-416 416c-229.75 0-416-186.25-416-416s186.25-416 416-416zM297.373 617.373c-12.497 12.497-12.497 32.758 0 45.255s32.758 12.497 45.255 0l400.157-400.157c12.497-12.497 12.497-32.758 0-45.255s-32.758-12.497-45.255 0l-400.157 400.157zM697.529 662.627c12.497 12.497 32.758 12.497 45.255 0s12.497-32.758 0-45.255l-400.157-400.157c-12.497-12.497-32.758-12.497-45.255 0s-12.497 32.758 0 45.255l400.157 400.157z" />
<glyph unicode="&#xe969;" glyph-name="close" d="M66.196 821.396c-19.995 19.995-19.995 52.413 0 72.408s52.413 19.995 72.408 0l802.4-802.4c19.995-19.995 19.995-52.413 0-72.408s-52.413-19.995-72.408 0l-802.4 802.4zM868.597 893.804c19.995 19.995 52.413 19.995 72.408 0s19.995-52.413 0-72.408l-802.4-802.4c-19.995-19.995-52.413-19.995-72.408 0s-19.995 52.413 0 72.408l802.4 802.4z" />
<glyph unicode="&#xe96a;" glyph-name="collect" d="M573.89 350.387v-362.333l371.341 224.941v362.333l-371.341-224.941zM553.485 384.073l371.341 224.941c18.604 11.27 42.822 5.324 54.092-13.281 3.728-6.154 5.698-13.211 5.698-20.406v-362.333c0-13.775-7.197-26.549-18.979-33.686l-371.341-224.941c-18.604-11.27-42.822-5.324-54.092 13.281-3.728 6.154-5.698 13.211-5.698 20.406v362.333c0 13.775 7.197 26.549 18.979 33.686zM450.11 350.387l-371.341 224.941v-362.333l371.341-224.941v362.333zM470.515 384.073c11.782-7.137 18.979-19.911 18.979-33.686v-362.333c0-7.195-1.971-14.252-5.698-20.406-11.27-18.604-35.487-24.55-54.092-13.281l-371.341 224.941c-11.782 7.137-18.979 19.911-18.979 33.686v362.333c0 7.195 1.971 14.252 5.698 20.406 11.27 18.604 35.487 24.55 54.092 13.281l371.341-224.941zM137.906 690.675l374.094-226.609 374.094 226.609-374.094 226.609-374.094-226.609zM522.203 957.151l412.102-249.633c9.302-5.635 12.275-17.744 6.64-27.046-1.646-2.717-3.924-4.995-6.64-6.64l-412.102-249.633c-6.271-3.799-14.134-3.799-20.406 0l-412.102 249.633c-9.302 5.635-12.275 17.744-6.64 27.046 1.646 2.717 3.924 4.995 6.64 6.64l412.102 249.633c6.271 3.799 14.134 3.799 20.406 0z" />
<glyph unicode="&#xe96b;" glyph-name="computer" d="M224 64h576c17.673 0 32-14.327 32-32s-14.327-32-32-32h-576c-17.673 0-32 14.327-32 32s14.327 32 32 32zM32 128c-17.673 0-32 14.327-32 32v704c0 17.673 14.327 32 32 32h960c17.673 0 32-14.327 32-32v-704c0-17.673-14.327-32-32-32h-960zM64 832v-640h896v640h-896z" />
<glyph unicode="&#xe96c;" glyph-name="delete" d="M170.667 704v-711.111h682.667v711.111h-682.667zM113.778 760.889h796.444v-768c0-31.419-25.47-56.889-56.889-56.889h-682.667c-31.419 0-56.889 25.47-56.889 56.889v768zM28.444 704c-15.709 0-28.444 12.735-28.444 28.444s12.735 28.444 28.444 28.444h967.111c15.709 0 28.444-12.735 28.444-28.444s-12.735-28.444-28.444-28.444h-967.111zM341.333 533.333c0 15.709 12.735 28.444 28.444 28.444s28.444-12.735 28.444-28.444v-341.333c0-15.709-12.735-28.444-28.444-28.444s-28.444 12.735-28.444 28.444v341.333zM625.778 533.333c0 15.709 12.735 28.444 28.444 28.444s28.444-12.735 28.444-28.444v-341.333c0-15.709-12.735-28.444-28.444-28.444s-28.444 12.735-28.444 28.444v341.333zM341.333 760.889h341.333v113.778h-341.333v-113.778zM341.333 931.556h341.333c31.419 0 56.889-25.47 56.889-56.889v-170.667h-455.111v170.667c0 31.419 25.47 56.889 56.889 56.889z" />
<glyph unicode="&#xe96d;" glyph-name="discuss" d="M153.6 755.2v-520.778h315.312l41.839-38.169 40.848 38.169h318.801v520.778h-716.8zM1024 183.222c0-56.554-45.846-102.4-102.4-102.4h-309.406l-100.194-93.622-102.625 93.622h-306.975c-56.554 0-102.4 45.846-102.4 102.4v623.178c0 56.554 45.846 102.4 102.4 102.4h819.2c56.554 0 102.4-45.846 102.4-102.4v-623.178zM312.32 448c-42.415 0-76.8 34.385-76.8 76.8s34.385 76.8 76.8 76.8c42.415 0 76.8-34.385 76.8-76.8s-34.385-76.8-76.8-76.8zM517.12 448c-42.415 0-76.8 34.385-76.8 76.8s34.385 76.8 76.8 76.8c42.415 0 76.8-34.385 76.8-76.8s-34.385-76.8-76.8-76.8zM721.92 448c-42.415 0-76.8 34.385-76.8 76.8s34.385 76.8 76.8 76.8c42.415 0 76.8-34.385 76.8-76.8s-34.385-76.8-76.8-76.8z" />
<glyph unicode="&#xe96e;" glyph-name="edit-outline" d="M850.889 619.031c0 14.883 12.065 26.947 26.947 26.947s26.947-12.065 26.947-26.947v-655.109c0-14.883-12.065-26.947-26.947-26.947h-806.199c-14.883 0-26.947 12.065-26.947 26.947v845.855c0 14.883 12.065 26.947 26.947 26.947h623.639c14.883 0 26.947-12.065 26.947-26.947s-12.065-26.947-26.947-26.947h-596.692v-791.96h752.305v628.162zM464.43 363.439c-10.524-10.524-27.586-10.524-38.109 0s-10.524 27.586 0 38.109l504.773 504.773c10.524 10.524 27.586 10.524 38.109 0s10.524-27.586 0-38.109l-504.773-504.773z" />
<glyph unicode="&#xe96f;" glyph-name="error" d="M512-37.744c268.269 0 485.744 217.475 485.744 485.744s-217.475 485.744-485.744 485.744c-268.269 0-485.744-217.475-485.744-485.744s217.475-485.744 485.744-485.744zM512-64c-282.77 0-512 229.23-512 512s229.23 512 512 512c282.77 0 512-229.23 512-512s-229.23-512-512-512zM350.616 247.082c-5.127-5.127-13.439-5.127-18.566 0s-5.127 13.439 0 18.566l362.301 362.301c5.127 5.127 13.439 5.127 18.566 0s5.127-13.439 0-18.566l-362.301-362.301zM712.918 265.648c5.127-5.127 5.127-13.439 0-18.566s-13.439-5.127-18.566 0l-362.301 362.301c-5.127 5.127-5.127 13.439 0 18.566s13.439 5.127 18.566 0l362.301-362.301z" />
<glyph unicode="&#xe970;" glyph-name="eye-close" d="M1020.673 486.132l-60.745 92.261c15.985 13.668 35.168 30.754 51.154 47.839 9.591 10.251 9.591 27.337 3.197 37.588-9.591 10.251-22.38 10.251-31.971 3.417-115.096-116.181-239.782-187.94-361.272-215.276-99.11-20.502-198.22-13.668-297.33 23.92-89.519 34.171-159.855 82.010-204.614 119.598-51.154 34.171-79.927 64.925-79.927 68.342-9.591 10.251-22.38 10.251-31.971 0s-9.591-27.337 0-37.588c0 0 22.38-27.337 60.745-61.507l-54.351-78.593c-6.394-10.251-6.394-27.337 3.197-37.588 3.197-3.417 9.591-6.834 12.788-6.834 6.394 0 12.788 3.417 19.183 10.251l54.351 78.593c38.365-30.754 95.913-68.342 163.052-99.095l-35.168-88.844c-6.394-13.668 0-27.337 9.591-34.171 3.197 0 6.394-3.417 9.591-3.417 9.591 0 15.985 6.834 19.183 13.668l38.365 92.261c57.548-20.502 118.293-34.171 175.84-34.171v-99.095c0-13.668 9.591-27.337 22.38-27.337s22.38 10.251 22.38 27.337v99.095c31.971 0 63.942 6.834 92.716 10.251 31.971 6.834 67.139 17.085 99.11 30.754l38.365-95.678c3.197-10.251 12.788-13.668 19.183-13.668 3.197 0 6.394 0 9.591 3.417 12.788 6.834 15.985 20.502 9.591 34.171l-28.774 99.095c51.154 23.92 105.504 58.090 153.461 99.095l60.745-92.261c3.197-6.834 12.788-10.251 19.183-10.251 3.197 0 9.591 0 12.788 3.417 9.591 13.668 12.788 27.337 6.394 41.005z" />
<glyph unicode="&#xe971;" glyph-name="filter" d="M102.797 875.928l312.915-326.867c4.562-4.765 7.108-11.107 7.108-17.703v-381.968l170.919-85.199v466.766c0 6.475 2.453 12.709 6.866 17.447l305.022 327.524h-802.83zM371.62 521.080l-347.262 362.746c-15.586 16.281-4.047 43.303 18.492 43.303h921.6c22.371 0 33.98-26.676 18.734-43.047l-338.245-363.199v-498.057c0-19.017-20.001-31.395-37.021-22.911l-222.119 110.721c-8.688 4.331-14.179 13.203-14.179 22.911v387.533z" />
<glyph unicode="&#xe972;" glyph-name="fingerprint" d="M457.030-64c-4.151-0.003-8.168 1.466-11.336 4.146-7.458 6.285-8.427 17.444-2.159 24.926 13.625 16.269 26.554 33.107 38.753 50.468 6.11 8.7 12.034 17.528 17.77 26.479 5.746 8.97 11.3 18.060 16.659 27.266 5.37 9.227 10.542 18.567 15.514 28.014 4.983 9.476 9.762 19.057 14.333 28.738 4.585 9.714 8.961 19.525 13.124 29.426 21.119 50.255 36.651 102.675 46.317 156.317 1.969 10.92 3.695 21.883 5.177 32.88 1.493 11.086 2.74 22.204 3.739 33.346 1.006 11.242 1.762 22.505 2.267 33.78 0.512 11.467 0.767 22.944 0.765 34.422v0.238c0 3.639-0.183 7.275-0.548 10.895-0.708 7.035-2.117 13.981-4.208 20.736-2.042 6.594-4.726 12.972-8.012 19.043-3.249 5.999-7.068 11.672-11.402 16.942-2.159 2.624-4.442 5.144-6.841 7.551-2.398 2.405-4.91 4.695-7.527 6.861-2.621 2.168-5.344 4.21-8.16 6.119-2.824 1.912-5.739 3.686-8.734 5.318-9.128 4.972-18.946 8.562-29.13 10.651-3.479 0.712-6.991 1.248-10.523 1.608-7.226 0.73-14.507 0.73-21.733 0-3.526-0.356-7.068-0.899-10.528-1.608-3.423-0.703-6.81-1.575-10.146-2.613-6.576-2.051-12.934-4.743-18.983-8.036-8.98-4.892-17.205-11.055-24.419-18.299-2.399-2.407-4.682-4.927-6.841-7.551-2.162-2.629-4.197-5.36-6.099-8.182-3.828-5.687-7.096-11.731-9.759-18.046-1.343-3.192-2.529-6.448-3.555-9.755-2.090-6.755-3.501-13.701-4.21-20.736-0.364-3.622-0.547-7.259-0.547-10.899l-0.001-0.238v-0.239c0.005-20.010-1.112-40.004-3.347-59.889-2.189-19.479-5.461-38.822-9.801-57.938-2.144-9.437-4.546-18.814-7.205-28.12-2.644-9.241-5.541-18.408-8.687-27.491-3.128-9.028-6.501-17.97-10.114-26.815-3.599-8.8-7.436-17.501-11.505-26.094-4.053-8.556-8.335-17.002-12.843-25.328-4.493-8.296-9.207-16.471-14.138-24.516-4.918-8.020-10.048-15.909-15.386-23.657-5.328-7.731-10.861-15.32-16.591-22.758-11.442-14.846-23.663-29.076-36.611-42.631-12.938-13.541-26.584-26.389-40.882-38.489-7.443-6.3-18.571-5.353-24.854 2.115-6.283 7.469-5.338 18.629 2.107 24.931 6.671 5.647 13.193 11.468 19.558 17.457 6.363 5.991 12.566 12.149 18.603 18.468 6.038 6.322 11.907 12.801 17.603 19.432 11.411 13.288 22.108 27.171 32.047 41.591 4.981 7.23 9.768 14.59 14.356 22.074 4.599 7.505 8.996 15.131 13.187 22.87 4.204 7.766 8.198 15.642 11.979 23.622 3.794 8.014 7.371 16.129 10.728 24.335 6.762 16.548 12.614 33.453 17.531 50.638 2.48 8.677 4.721 17.421 6.721 26.221 2.013 8.873 3.781 17.8 5.302 26.77 1.532 9.055 2.812 18.151 3.84 27.277 2.086 18.568 3.128 37.238 3.123 55.922v0.477c-0.006 9.586 0.954 19.147 2.866 28.541 0.931 4.566 2.102 9.138 3.481 13.59 1.37 4.418 2.955 8.768 4.749 13.032 3.551 8.426 7.911 16.488 13.019 24.073 2.522 3.745 5.255 7.411 8.124 10.901 2.875 3.492 5.914 6.847 9.107 10.051 9.614 9.647 20.572 17.858 32.534 24.377 4.020 2.187 8.143 4.178 12.356 5.966 4.249 1.8 8.585 3.39 12.99 4.765 4.455 1.386 8.977 2.551 13.548 3.491 4.639 0.949 9.323 1.665 14.033 2.145 9.592 0.968 19.258 0.968 28.85 0 4.709-0.48 9.391-1.195 14.029-2.143 4.566-0.938 9.125-2.111 13.554-3.492 8.78-2.736 17.269-6.33 25.344-10.729 3.993-2.175 7.879-4.542 11.644-7.092 3.75-2.543 7.376-5.263 10.868-8.149 6.973-5.773 13.379-12.198 19.129-19.187 2.88-3.501 5.591-7.138 8.123-10.898 2.543-3.779 4.903-7.679 7.072-11.684 2.181-4.032 4.166-8.168 5.948-12.391 1.79-4.251 3.389-8.635 4.75-13.032 1.384-4.469 2.546-9.005 3.481-13.589 0.946-4.653 1.66-9.35 2.138-14.074 0.484-4.767 0.729-9.637 0.729-14.468l-0.001-0.238v-0.238c0.003-23.746-1.055-47.48-3.171-71.132-2.082-23.246-5.197-46.387-9.338-69.356-2.048-11.357-4.347-22.668-6.895-33.923-2.534-11.184-5.313-22.311-8.335-33.373-14.913-54.558-35.722-107.334-62.060-157.397-10.401-19.77-21.643-39.087-33.695-57.898-6.008-9.373-12.213-18.618-18.611-27.729-6.391-9.094-12.973-18.053-19.743-26.87-6.728-8.761-13.739-17.499-20.838-25.974-3.344-4.005-8.296-6.318-13.516-6.313l-0.003-0.001zM617.37-55.736c-3.277 0-6.59 0.916-9.551 2.83-8.184 5.3-10.537 16.249-5.253 24.459 11.012 17.114 21.425 34.606 31.22 52.443 9.834 17.916 19.037 36.171 27.593 54.73 17.269 37.475 31.855 76.126 43.648 115.663 8.974 30.091 16.314 60.645 21.989 91.527 1.765 9.609 10.964 15.959 20.545 14.19 9.58-1.773 15.913-10.998 14.148-20.607-5.908-32.138-13.547-63.934-22.884-95.251-6.156-20.64-13.045-41.056-20.653-61.207-3.786-10.018-7.747-19.968-11.882-29.847-4.123-9.846-8.419-19.62-12.886-29.315-4.458-9.668-9.084-19.257-13.875-28.764-9.555-18.943-19.767-37.548-30.62-55.78-5.41-9.087-10.979-18.080-16.702-26.974-3.24-5.050-8.833-8.102-14.837-8.098l0.001 0.001zM320.169-28.451c-4.588 0-9.171 1.784-12.629 5.337-6.801 6.995-6.662 18.197 0.309 25.018 7.193 7.042 14.216 14.255 21.062 21.634 6.847 7.385 13.515 14.933 19.998 22.639 6.486 7.716 12.786 15.586 18.894 23.605 18.388 24.152 34.979 49.617 49.641 76.191 9.838 17.838 18.789 36.15 26.821 54.869 4.039 9.416 7.843 18.931 11.409 28.536 3.582 9.654 6.922 19.395 10.018 29.216 3.113 9.879 5.977 19.834 8.59 29.856 7.956 30.534 13.566 61.631 16.782 93.018 1.093 10.653 1.915 21.332 2.466 32.027 0.551 10.743 0.83 21.668 0.83 32.471 0 9.773 7.897 17.693 17.638 17.693s17.638-7.92 17.638-17.691c0-11.405-0.297-22.942-0.878-34.289-0.581-11.299-1.449-22.581-2.604-33.836-1.146-11.148-2.575-22.264-4.288-33.339-1.699-10.979-3.676-21.914-5.928-32.793-2.24-10.797-4.75-21.536-7.528-32.208-2.763-10.598-5.792-21.126-9.082-31.573-3.274-10.385-6.806-20.687-10.594-30.896-3.771-10.157-7.794-20.218-12.063-30.176-4.254-9.913-8.752-19.72-13.488-29.411-14.131-28.891-30.37-56.705-48.586-83.216-6.042-8.791-12.296-17.435-18.757-25.924-6.454-8.474-13.111-16.792-19.966-24.945-6.851-8.143-13.897-16.119-21.133-23.922-7.234-7.798-14.655-15.42-22.257-22.86-3.283-3.228-7.707-5.035-12.314-5.030l-0.001 0.002zM800.942 26.384c-2.316 0-4.671 0.459-6.937 1.433-8.953 3.848-13.105 14.246-9.27 23.229 3.236 7.581 6.379 15.202 9.428 22.86 3.053 7.676 6.012 15.389 8.875 23.138 14.445 39.089 26.427 79.042 35.875 119.626 3.823 16.422 7.232 32.937 10.224 49.53 6.060 33.622 10.401 67.531 13.006 101.595 1.325 17.288 2.209 34.607 2.652 51.941 0.223 8.704 0.337 17.528 0.337 26.229v0.477c0 12.101-0.615 24.304-1.823 36.268-1.195 11.811-2.979 23.554-5.346 35.187-2.336 11.452-5.237 22.782-8.692 33.949-3.419 11.034-7.378 21.893-11.861 32.539-8.875 21.055-19.771 41.203-32.534 60.16-6.337 9.406-13.119 18.506-20.322 27.268-7.193 8.741-14.797 17.135-22.787 25.154-7.991 8.012-16.359 15.64-25.076 22.858-17.497 14.483-36.35 27.247-56.3 38.114-10.040 5.465-20.34 10.439-30.864 14.903-10.612 4.495-21.439 8.466-32.442 11.898-11.13 3.465-22.425 6.374-33.844 8.718-11.597 2.373-23.306 4.163-35.083 5.362-12.014 1.218-24.082 1.828-36.158 1.828-9.743 0-17.638 7.92-17.638 17.691s7.897 17.691 17.638 17.691c13.249 0 26.61-0.675 39.715-2.008 12.953-1.319 25.831-3.288 38.586-5.899 12.568-2.578 24.999-5.78 37.248-9.594 12.11-3.778 24.027-8.149 35.707-13.097 11.581-4.912 22.915-10.385 33.963-16.399 10.983-5.983 21.671-12.491 32.026-19.503 10.317-6.992 20.293-14.472 29.894-22.416 9.583-7.936 18.784-16.322 27.57-25.13 8.786-8.816 17.148-18.045 25.056-27.656 7.923-9.633 15.381-19.639 22.349-29.982 6.993-10.391 13.482-21.111 19.444-32.124 5.997-11.085 11.453-22.455 16.348-34.067 4.935-11.719 9.293-23.672 13.057-35.816 3.804-12.288 6.996-24.758 9.565-37.361 2.604-12.796 4.567-25.713 5.881-38.704 1.334-13.237 2.003-26.532 2.004-39.835 0-0.080 0-0.158-0.002-0.238l0.001-0.239c0-9.047-0.116-18.093-0.347-27.136-0.906-35.699-3.634-71.328-8.174-106.749-1.121-8.747-2.354-17.48-3.698-26.196-6.638-43.075-15.986-85.689-27.989-127.589-2.377-8.292-4.857-16.554-7.44-24.785-10.262-32.701-22.144-64.871-35.604-96.393-2.765-6.503-9.15-10.728-16.222-10.734l0.003 0.007zM119.417 127.347c-5.42-0.006-10.539 2.487-13.874 6.755-6.022 7.679-4.7 18.803 2.955 24.843 5.291 4.177 10.467 8.498 15.521 12.959 5.050 4.459 9.977 9.055 14.775 13.784 14.412 14.211 27.623 29.588 39.498 45.974 3.956 5.458 7.804 11.094 11.438 16.742 3.665 5.701 7.171 11.502 10.514 17.396 13.522 23.841 24.301 49.134 32.13 75.395 1.982 6.657 3.774 13.37 5.375 20.129 3.24 13.701 5.682 27.577 7.316 41.56 0.831 7.103 1.455 14.228 1.872 21.367 0.357 6.137 0.566 12.364 0.618 18.551-0.25 1.198-0.375 2.419-0.374 3.643 0 9.058 0.458 18.192 1.365 27.152 0.896 8.858 2.235 17.665 4.010 26.39 1.753 8.594 3.93 17.097 6.523 25.477 2.568 8.281 5.539 16.431 8.903 24.422 3.337 7.919 7.057 15.671 11.146 23.229 4.067 7.509 8.492 14.818 13.261 21.903 4.749 7.052 9.833 13.874 15.234 20.441 5.391 6.551 11.092 12.842 17.081 18.852 5.99 6.006 12.262 11.723 18.795 17.133 6.546 5.416 13.347 10.515 20.381 15.282 8.072 5.471 19.037 3.336 24.49-4.761 1.973-2.922 3.025-6.366 3.023-9.89-0.002-5.679-2.725-11.257-7.771-14.674-6.098-4.133-11.995-8.555-17.671-13.25-5.667-4.692-11.107-9.651-16.303-14.859-5.195-5.213-10.139-10.67-14.815-16.352-9.392-11.417-17.663-23.709-24.701-36.707-3.542-6.547-6.764-13.263-9.655-20.122-2.914-6.919-5.486-13.976-7.709-21.147-4.532-14.639-7.589-29.693-9.125-44.939-0.684-6.797-1.072-13.621-1.162-20.452 0.24-1.167 0.366-2.372 0.366-3.608 0.006-15.776-0.91-31.539-2.744-47.208-1.793-15.343-4.474-30.57-8.028-45.604-1.756-7.42-3.724-14.789-5.901-22.097-10.729-35.974-26.484-70.257-46.8-101.834-4.012-6.235-8.195-12.359-12.545-18.364-13.020-17.965-27.504-34.823-43.303-50.405-10.523-10.374-21.61-20.161-33.211-29.316-3.098-2.458-6.939-3.795-10.895-3.793l-0.001 0.003zM55.75 237.458c-5.049-0.006-9.856 2.16-13.194 5.943-6.469 7.306-5.808 18.487 1.475 24.977 3.051 2.717 6.032 5.513 8.938 8.384 2.894 2.86 5.754 5.833 8.5 8.839 8.287 9.072 15.86 18.77 22.652 29.006 9.133 13.768 16.802 28.451 22.883 43.81 6.198 15.677 10.7 31.971 13.429 48.604 1.4 8.528 2.336 17.126 2.805 25.756 0.237 4.358 0.357 8.795 0.357 13.184l0.001 0.239v0.238c0 13.289 0.672 26.691 2.001 39.836 1.315 12.991 3.277 25.909 5.881 38.704 2.57 12.604 5.762 25.073 9.565 37.361 3.765 12.143 8.122 24.096 13.056 35.814 4.896 11.613 10.352 22.982 16.35 34.067 4.646 8.586 15.353 11.769 23.915 7.107 5.887-3.205 9.225-9.284 9.227-15.559 0-2.852-0.687-5.746-2.141-8.429-5.45-10.074-10.408-20.406-14.857-30.959-4.483-10.647-8.441-21.506-11.861-32.539-3.455-11.166-6.356-22.495-8.69-33.947-2.367-11.634-4.151-23.379-5.347-35.191-1.214-12.051-1.822-24.156-1.822-36.268l-0.001-0.238v-0.239c0-5.030-0.137-10.116-0.409-15.113-0.272-4.978-0.678-9.947-1.217-14.903-0.536-4.908-1.204-9.802-2.002-14.674-0.792-4.83-1.716-9.638-2.768-14.418-2.081-9.456-4.667-18.793-7.747-27.972-1.525-4.546-3.17-9.051-4.932-13.511-6.984-17.659-15.799-34.539-26.299-50.366-5.203-7.841-10.806-15.409-16.787-22.675-8.953-10.872-18.731-21.039-29.247-30.411-3.221-2.876-7.39-4.464-11.71-4.462l-0.003 0.005zM756.787 361.954c-0.435 0-0.87 0.016-1.308 0.048-9.716 0.715-17.014 9.196-16.303 18.94 0.786 10.774 1.377 21.561 1.772 32.356 0.394 10.827 0.593 21.818 0.593 32.665l0.001 0.24v0.238c0 7.876-0.401 15.81-1.185 23.584-0.777 7.678-1.936 15.312-3.475 22.874-1.518 7.443-3.403 14.806-5.649 22.063-2.223 7.17-4.796 14.228-7.709 21.148-2.892 6.859-6.115 13.573-9.656 20.121-3.524 6.507-7.358 12.842-11.49 18.982-1.972 2.921-3.025 6.365-3.023 9.889 0.001 5.679 2.725 11.257 7.769 14.674 8.072 5.469 19.037 3.337 24.49-4.761 4.768-7.084 9.192-14.393 13.258-21.9 4.088-7.559 7.808-15.311 11.146-23.229 3.365-7.991 6.336-16.141 8.903-24.422 5.231-16.896 8.758-34.271 10.531-51.867 0.909-9.022 1.365-18.084 1.365-27.152v-0.476c0-11.277-0.206-22.703-0.618-33.958-0.409-11.227-1.023-22.446-1.841-33.651-0.68-9.305-8.418-16.401-17.571-16.401l-0.001-0.002zM17.721 425.683c-0.1 0-0.199 0-0.299 0.002h-0.035c-0.645 0.012-1.289 0.059-1.929 0.141-0.008 0.002-0.015 0-0.026 0.003l-0.026 0.003c-8.668 1.141-15.305 8.619-15.331 17.544v0.031l-0.002 0.089-0.005 0.217-0.034 0.968-0.006 0.172-0.005 0.174-0.017 0.724-0.002 0.156-0.003 0.535c0 17.523 0.887 35.195 2.64 52.521 1.733 17.124 4.321 34.152 7.752 51.019 3.388 16.613 7.596 33.048 12.608 49.246 4.962 16.007 10.705 31.761 17.209 47.207 6.453 15.307 13.644 30.292 21.55 44.903 7.861 14.516 16.414 28.648 25.631 42.345 9.185 13.636 19.016 26.827 29.459 39.528 10.424 12.668 21.446 24.833 33.028 36.453 6.888 6.91 18.056 6.908 24.943 0s6.888-18.11 0-25.019c-10.787-10.824-21.053-22.154-30.762-33.953-9.726-11.827-18.881-24.111-27.435-36.81-8.582-12.751-16.546-25.907-23.865-39.421-7.357-13.6-14.050-27.549-20.057-41.796-6.053-14.374-11.398-29.036-16.015-43.932-4.665-15.075-8.582-30.372-11.734-45.833-3.194-15.705-5.603-31.559-7.218-47.504-1.566-15.542-2.385-31.15-2.454-46.77 0.131-0.868 0.198-1.756 0.198-2.658l-0.003-0.347-0.048-1.386c-0.002-0.057-0.005-0.118-0.010-0.177l-0.021-0.327-0.011-0.172c-0.003-0.057-0.007-0.115-0.013-0.172-0.002-0.052-0.006-0.105-0.011-0.157-0.003-0.052-0.007-0.103-0.011-0.154 0-0.045-0.005-0.087-0.006-0.132-0.007-0.329-0.023-0.655-0.048-0.98l-0.001-0.029c-0.71-9.158-8.344-16.25-17.575-16.251zM1006.362 428.751c-9.743 0-17.638 7.92-17.638 17.691 0 16.327-0.829 32.797-2.459 48.952-1.613 15.945-4.023 31.799-7.219 47.504-3.153 15.461-7.069 30.757-11.734 45.832-4.617 14.896-9.961 29.558-16.014 43.932-6.007 14.248-12.701 28.196-20.059 41.797-7.319 13.515-15.283 26.671-23.866 39.422-8.553 12.699-17.708 24.983-27.432 36.81-9.71 11.798-19.976 23.129-30.763 33.953-6.888 6.908-6.889 18.11 0 25.019s18.056 6.908 24.943 0c11.582-11.621 22.603-23.787 33.028-36.454 10.444-12.699 20.274-25.89 29.459-39.525 9.218-13.697 17.771-27.828 25.631-42.345 7.905-14.612 15.097-29.597 21.551-44.904 6.503-15.446 12.246-31.2 17.208-47.207 5.013-16.198 9.221-32.633 12.608-49.246 3.431-16.867 6.019-33.895 7.753-51.020 1.758-17.452 2.639-34.981 2.64-52.521 0-9.771-7.897-17.69-17.638-17.69v-0.001zM686.826 604.105c-4.514 0-9.028 1.727-12.472 5.183-5.195 5.209-10.636 10.168-16.304 14.859-11.372 9.415-23.628 17.711-36.595 24.775-6.525 3.552-13.22 6.785-20.059 9.687-6.896 2.922-13.932 5.502-21.083 7.732-7.234 2.252-14.576 4.143-21.999 5.666-7.538 1.543-15.149 2.707-22.804 3.486-15.635 1.577-31.389 1.577-47.023 0-7.655-0.78-15.266-1.944-22.805-3.486-7.422-1.524-14.763-3.415-21.997-5.666-9.3-2.899-19.187 2.315-22.078 11.647-0.528 1.703-0.797 3.476-0.798 5.259 0.001 7.543 4.85 14.529 12.409 16.884 8.352 2.601 16.829 4.784 25.399 6.542 8.697 1.781 17.478 3.123 26.31 4.021 18.001 1.817 36.139 1.817 54.14 0 8.831-0.898 17.612-2.24 26.308-4.020 8.57-1.758 17.047-3.942 25.399-6.542 8.258-2.576 16.385-5.556 24.349-8.931 7.896-3.349 15.625-7.080 23.158-11.18 7.488-4.080 14.775-8.519 21.836-13.299 7.033-4.766 13.834-9.866 20.38-15.28 6.533-5.411 12.805-11.129 18.795-17.134 3.316-3.32 5.174-7.82 5.167-12.51 0.007-4.689-1.851-9.189-5.167-12.509-3.299-3.319-7.788-5.184-12.471-5.181l0.002-0.001zM249.762 691.785c-4.683-0.005-9.174 1.862-12.472 5.183-3.315 3.32-5.174 7.82-5.167 12.509 0 4.528 1.722 9.056 5.167 12.51 8.785 8.81 17.986 17.196 27.571 25.13 19.241 15.931 39.977 29.969 61.919 41.919 11.049 6.014 22.384 11.486 33.965 16.399 11.679 4.948 23.596 9.319 35.706 13.096 12.249 3.815 24.681 7.017 37.249 9.594 9.55 1.955 18.863-4.218 20.811-13.792 0.244-1.195 0.361-2.39 0.361-3.565-0.001-8.229-5.759-15.599-14.11-17.311-11.419-2.343-22.715-5.253-33.844-8.719-11.003-3.431-21.83-7.402-32.442-11.898-10.524-4.464-20.824-9.437-30.864-14.903-9.984-5.439-19.7-11.356-29.113-17.73-9.382-6.358-18.455-13.16-27.186-20.384-8.717-7.217-17.085-14.845-25.076-22.857-3.3-3.319-7.79-5.185-12.473-5.181l-0.002-0.001zM788.485 839.986c-3.398 0-6.829 0.981-9.857 3.031-12.708 8.606-25.824 16.595-39.302 23.938-13.555 7.378-27.461 14.093-41.67 20.121-14.326 6.070-28.943 11.431-43.798 16.063-9.304 2.899-14.501 12.814-11.611 22.145s12.777 14.546 22.075 11.647c15.962-4.977 31.669-10.737 47.063-17.259 15.265-6.476 30.206-13.69 44.77-21.617 14.477-7.888 28.565-16.469 42.215-25.711 8.072-5.468 10.198-16.464 4.747-24.563-3.271-4.874-8.759-7.797-14.633-7.793v-0.001zM235.515 839.986c-5.874-0.005-11.363 2.919-14.633 7.793-5.453 8.098-3.326 19.095 4.747 24.563 13.65 9.243 27.739 17.823 42.216 25.711 14.563 7.926 29.504 15.14 44.769 21.614 15.395 6.522 31.101 12.283 47.063 17.261 16.145 5.028 32.531 9.249 49.097 12.647 16.814 3.441 33.791 6.036 50.866 7.775 17.398 1.763 34.874 2.647 52.361 2.648 17.468 0 35.085-0.891 52.361-2.648 9.692-0.986 16.751-9.665 15.769-19.386-0.983-9.722-9.643-16.799-19.328-15.818-32.453 3.288-65.155 3.288-97.607 0-15.898-1.619-31.705-4.035-47.361-7.239-15.417-3.163-30.667-7.090-45.693-11.769-14.855-4.632-29.473-9.993-43.799-16.063-14.209-6.026-28.115-12.741-41.668-20.121-13.479-7.344-26.596-15.332-39.304-23.938-2.906-1.976-6.34-3.033-9.856-3.032h0.001z" />
<glyph unicode="&#xe973;" glyph-name="flashlight" d="M666.859-2.434v474.143c0 5.174 1.489 10.238 4.29 14.588l167.887 260.749h-654.622l161.078-261.192c2.622-4.252 4.011-9.149 4.011-14.145v-475.18l317.355 1.037zM720.754 463.783v-493.077c0-14.848-12.011-26.899-26.859-26.947l-371.25-1.213c-14.917-0.049-27.035 12.030-27.035 26.947v494.574l-182.409 295.781c-11.072 17.953 1.843 41.092 22.936 41.092h752.3c21.328 0 34.203-23.603 22.657-41.535l-190.34-295.622zM335.345 904.608c-14.883 0-26.947 12.065-26.947 26.947s12.065 26.947 26.947 26.947h341.333c14.883 0 26.947-12.065 26.947-26.947s-12.065-26.947-26.947-26.947h-341.333zM479.064 305.778c0 14.883 12.065 26.947 26.947 26.947s26.947-12.065 26.947-26.947v-113.778c0-14.883-12.065-26.947-26.947-26.947s-26.947 12.065-26.947 26.947v113.778z" />
<glyph unicode="&#xe974;" glyph-name="font-size" d="M36.654 61.913l-35.382 13.656 302.951 784.954 35.382-13.656zM304.223 846.867l35.382 13.656 302.951-784.954-35.382-13.656-302.951 784.954zM339.605 860.522l302.951-784.954-35.382-13.656-302.951 784.954 35.382 13.656zM809.037 126.519c36.445 0 67.037 11.333 91.778 34s37.111 50.592 37.111 83.778v37.778l-123.556-7.556c-65.186-4.148-97.778-29.185-97.778-75.111 0-21.926 8.444-39.555 25.333-52.889s39.259-20 67.111-20zM791.704 60.741c-45.926 0-83.037 12.741-111.333 38.222s-42.444 58.963-42.444 100.444c0 39.704 14.592 71.407 43.778 95.111s70.444 37.037 123.778 40l132.444 7.556v38.667c0 28.148-8.889 50.222-26.667 66.222s-42.667 24-74.667 24c-29.63 0-53.555-6.518-71.778-19.556s-29.852-30.963-34.889-53.778h-74.667c2.667 40 20.222 73.555 52.667 100.667s75.926 40.667 130.444 40.667c54.222 0 97.259-13.629 129.111-40.889s47.778-63.852 47.778-109.778v-319.556h-73.333v79.556h-1.778c-13.63-26.37-34-47.555-61.111-63.556s-56.222-24-87.333-24zM151.704 334.222v37.926h383.738v-37.926z" />
<glyph unicode="&#xe975;" glyph-name="general" d="M512 0c247.424 0 448 200.576 448 448s-200.576 448-448 448c-247.424 0-448-200.576-448-448s200.576-448 448-448zM512-64c-282.77 0-512 229.23-512 512s229.23 512 512 512c282.77 0 512-229.23 512-512s-229.23-512-512-512zM384 576c0-35.346-28.654-64-64-64s-64 28.654-64 64c0 35.346 28.654 64 64 64s64-28.654 64-64zM768 576c0-35.346-28.654-64-64-64s-64 28.654-64 64c0 35.346 28.654 64 64 64s64-28.654 64-64zM352 320h320c17.673 0 32-14.327 32-32s-14.327-32-32-32h-320c-17.673 0-32 14.327-32 32s14.327 32 32 32z" />
<glyph unicode="&#xe976;" glyph-name="good" d="M512 0c247.424 0 448 200.576 448 448s-200.576 448-448 448c-247.424 0-448-200.576-448-448s200.576-448 448-448zM512-64c-282.77 0-512 229.23-512 512s229.23 512 512 512c282.77 0 512-229.23 512-512s-229.23-512-512-512zM384 576c0-35.346-28.654-64-64-64s-64 28.654-64 64c0 35.346 28.654 64 64 64s64-28.654 64-64zM768 576c0-35.346-28.654-64-64-64s-64 28.654-64 64c0 35.346 28.654 64 64 64s64-28.654 64-64zM265.373 265.373c-12.497 12.497-12.497 32.758 0 45.255s32.758 12.497 45.255 0c112.471-112.471 294.823-112.471 407.294 0 12.497 12.497 32.758 12.497 45.255 0s12.497-32.758 0-45.255c-137.465-137.465-360.339-137.465-497.803 0z" />
<glyph unicode="&#xe977;" glyph-name="happy" d="M512-46.933c273.344 0 494.933 221.589 494.933 494.933s-221.589 494.933-494.933 494.933c-273.344 0-494.933-221.589-494.933-494.933s221.589-494.933 494.933-494.933zM512-64c-282.77 0-512 229.23-512 512s229.23 512 512 512c282.77 0 512-229.23 512-512s-229.23-512-512-512zM512 157.867c-160.236 0-290.133 129.897-290.133 290.133 0 9.426 7.641 17.067 17.067 17.067 54.248 0 99.237-0.005 190.718-0.018 186.771-0.027 262.16-0.027 355.407 0.018 9.429 0.004 17.075-7.638 17.075-17.067 0-160.236-129.897-290.133-290.133-290.133zM512 192c135.647 0 246.653 105.501 255.44 238.925-85.677-0.036-162.911-0.035-337.793-0.010-81.425 0.012-126.016 0.017-173.087 0.018 8.782-133.428 119.79-238.933 255.44-238.933zM375.467 635.733c0-28.277-22.923-51.2-51.2-51.2s-51.2 22.923-51.2 51.2c0 28.277 22.923 51.2 51.2 51.2s51.2-22.923 51.2-51.2zM750.933 635.733c0-28.277-22.923-51.2-51.2-51.2s-51.2 22.923-51.2 51.2c0 28.277 22.923 51.2 51.2 51.2s51.2-22.923 51.2-51.2z" />
<glyph unicode="&#xe978;" glyph-name="history" d="M192.91 504.376l-88.69-88.69-88.69 88.69zM163.072 197.736c84.014-126.87 228.034-210.536 391.594-210.536 259.206 0 469.333 210.128 469.333 469.333s-210.128 469.333-469.333 469.333c-244.823 0-445.864-187.456-467.42-426.667h33.324c21.443 220.859 207.609 393.49 434.096 393.49 240.883 0 436.157-195.274 436.157-436.157s-195.274-436.157-436.157-436.157c-152.842 0-287.321 78.617-365.207 197.619l-26.387-20.26zM546.133 448h221.867v-34.133h-256v256h34.133v-221.867z" />
<glyph unicode="&#xe979;" glyph-name="indicator-right" d="M113.778 903.111l796.444-456.42-796.444-453.802 230.232 453.802z" />
<glyph unicode="&#xe97a;" glyph-name="invite" d="M196.406 910.389c2.59 3.737 5.83 6.977 9.567 9.567 17.215 11.932 40.844 7.648 52.775-9.567l36.929-53.282 62.24-18.878c4.635-1.406 8.959-3.687 12.736-6.719 16.333-13.113 18.944-36.984 5.83-53.318l-38.762-48.28 1.796-66.622c0.141-5.218-0.797-10.409-2.755-15.248-7.857-19.416-29.966-28.787-49.383-20.93l-59.802 24.199-59.814-24.204c-4.834-1.956-10.019-2.894-15.232-2.756-20.939 0.556-37.462 17.98-36.906 38.919l1.769 66.642-38.769 48.316c-3.034 3.781-5.314 8.108-6.719 12.747-6.069 20.048 5.263 41.219 25.311 47.288l62.265 18.848 36.925 53.277zM183.121 824.643l-74.917-22.679 47.47-59.16-2.137-80.54 74.040 29.961 74.028-29.956-2.171 80.534 47.475 59.132-74.879 22.711-44.453 64.137-44.456-64.142zM196.406 569.056c2.59 3.737 5.83 6.977 9.567 9.567 17.215 11.932 40.844 7.648 52.775-9.567l36.929-53.282 62.24-18.878c4.635-1.406 8.959-3.687 12.736-6.719 16.333-13.113 18.944-36.984 5.83-53.318l-38.762-48.28 1.796-66.622c0.141-5.218-0.797-10.409-2.755-15.248-7.857-19.416-29.966-28.787-49.383-20.93l-59.802 24.199-59.814-24.204c-4.834-1.956-10.019-2.894-15.232-2.756-20.939 0.556-37.462 17.98-36.906 38.919l1.769 66.642-38.769 48.316c-3.034 3.781-5.314 8.108-6.719 12.747-6.069 20.048 5.263 41.219 25.311 47.288l62.265 18.848 36.925 53.277zM183.121 483.31l-74.917-22.679 47.47-59.16-2.137-80.54 74.040 29.961 74.028-29.956-2.171 80.535 47.475 59.132-74.879 22.711-44.453 64.137-44.456-64.142zM196.406 227.722c2.59 3.737 5.83 6.977 9.567 9.567 17.215 11.932 40.844 7.648 52.775-9.567l36.929-53.282 62.24-18.878c4.635-1.406 8.959-3.687 12.736-6.719 16.333-13.113 18.944-36.984 5.83-53.318l-38.762-48.28 1.796-66.622c0.141-5.218-0.797-10.409-2.755-15.248-7.857-19.416-29.966-28.787-49.383-20.93l-59.802 24.199-59.814-24.204c-4.834-1.956-10.019-2.894-15.232-2.756-20.939 0.556-37.462 17.98-36.906 38.919l1.769 66.642-38.769 48.316c-3.034 3.781-5.314 8.108-6.719 12.747-6.069 20.048 5.263 41.219 25.311 47.288l62.265 18.848 36.925 53.277zM183.121 141.976l-74.917-22.679 47.47-59.16-2.137-80.54 74.040 29.961 74.028-29.956-2.171 80.535 47.475 59.132-74.879 22.711-44.453 64.137-44.456-64.142zM474.074 846.222h493.037c10.473 0 18.963-8.49 18.963-18.963s-8.49-18.963-18.963-18.963h-493.037c-10.473 0-18.963 8.49-18.963 18.963s8.49 18.963 18.963 18.963zM474.074 504.889h493.037c10.473 0 18.963-8.49 18.963-18.963s-8.49-18.963-18.963-18.963h-493.037c-10.473 0-18.963 8.49-18.963 18.963s8.49 18.963 18.963 18.963zM474.074 163.556h493.037c10.473 0 18.963-8.49 18.963-18.963s-8.49-18.963-18.963-18.963h-493.037c-10.473 0-18.963 8.49-18.963 18.963s8.49 18.963 18.963 18.963zM474.074 732.444h341.333c10.473 0 18.963-8.49 18.963-18.963s-8.49-18.963-18.963-18.963h-341.333c-10.473 0-18.963 8.49-18.963 18.963s8.49 18.963 18.963 18.963zM474.074 391.111h341.333c10.473 0 18.963-8.49 18.963-18.963s-8.49-18.963-18.963-18.963h-341.333c-10.473 0-18.963 8.49-18.963 18.963s8.49 18.963 18.963 18.963zM474.074 49.778h341.333c10.473 0 18.963-8.49 18.963-18.963s-8.49-18.963-18.963-18.963h-341.333c-10.473 0-18.963 8.49-18.963 18.963s8.49 18.963 18.963 18.963z" />
<glyph unicode="&#xe97b;" glyph-name="link" d="M565.344 564.191c22.514-6.985 43.672-18.642 61.274-36.244 60.486-60.486 58.168-161.25-5.224-224.642l-248.076-248.076c-63.366-63.366-164.156-65.71-224.642-5.224s-58.142 161.275 5.224 224.642l123.31 123.31-24.38 24.38-123.31-123.31c-77.439-77.439-80.329-200.618-6.385-274.562s197.123-71.054 274.562 6.385l248.076 248.076c77.465 77.465 80.329 200.618 6.385 274.562-17.212 17.212-37.144 30.095-58.516 39.003l-28.299-28.299zM469.551 334.563c-22.655 7.091-43.96 18.874-61.709 36.622-60.99 60.99-58.965 162.281 4.571 225.817l248.64 248.64c63.51 63.51 164.827 65.561 225.817 4.571s58.939-162.307-4.571-225.817l-123.59-123.59 24.583-24.583 123.59 123.59c77.615 77.615 80.147 201.439 5.587 275.999s-198.383 72.028-275.999-5.587l-248.64-248.64c-77.641-77.641-80.147-201.439-5.587-275.999 17.356-17.356 37.432-30.367 58.944-39.387l28.363 28.363z" />
<glyph unicode="&#xe97c;" glyph-name="living" d="M113.778 903.111c62.838 0 113.778-50.94 113.778-113.778v-682.667c0-62.838-50.94-113.778-113.778-113.778s-113.778 50.94-113.778 113.778v682.667c0 62.838 50.94 113.778 113.778 113.778zM512 675.556c62.838 0 113.778-50.94 113.778-113.778v-227.556c0-62.838-50.94-113.778-113.778-113.778s-113.778 50.94-113.778 113.778v227.556c0 62.838 50.94 113.778 113.778 113.778zM910.222 789.333c62.838 0 113.778-50.94 113.778-113.778v-455.111c0-62.838-50.94-113.778-113.778-113.778s-113.778 50.94-113.778 113.778v455.111c0 62.838 50.94 113.778 113.778 113.778z" />
<glyph unicode="&#xe97d;" glyph-name="load" d="M28.444 960h967.111c15.709 0 28.444-12.735 28.444-28.444s-12.735-28.444-28.444-28.444h-967.111c-15.709 0-28.444 12.735-28.444 28.444s12.735 28.444 28.444 28.444zM369.778 476.444h625.778c15.709 0 28.444-12.735 28.444-28.444s-12.735-28.444-28.444-28.444h-625.778c-15.709 0-28.444 12.735-28.444 28.444s12.735 28.444 28.444 28.444zM28.444-7.111h967.111c15.709 0 28.444-12.735 28.444-28.444s-12.735-28.444-28.444-28.444h-967.111c-15.709 0-28.444 12.735-28.444 28.444s12.735 28.444 28.444 28.444z" />
<glyph unicode="&#xe97e;" glyph-name="lock" d="M128 448c-35.346 0-64-28.654-64-64v-320c0-35.346 28.654-64 64-64h768c35.346 0 64 28.654 64 64v320c0 35.346-28.654 64-64 64h-768zM128 512h768c70.692 0 128-57.308 128-128v-320c0-70.692-57.308-128-128-128h-768c-70.692 0-128 57.308-128 128v320c0 70.692 57.308 128 128 128zM800 640v-185.704h-576v185.704c0 159.058 128.942 288 288 288s288-128.942 288-288zM736 640c0 123.712-100.288 224-224 224s-224-100.288-224-224v-121.704h448v121.704z" />
<glyph unicode="&#xe97f;" glyph-name="menu-fill" d="M28.444 960h398.222c15.709 0 28.444-12.735 28.444-28.444v-398.222c0-15.709-12.735-28.444-28.444-28.444h-398.222c-15.709 0-28.444 12.735-28.444 28.444v398.222c0 15.709 12.735 28.444 28.444 28.444zM597.333 960h398.222c15.709 0 28.444-12.735 28.444-28.444v-398.222c0-15.709-12.735-28.444-28.444-28.444h-398.222c-15.709 0-28.444 12.735-28.444 28.444v398.222c0 15.709 12.735 28.444 28.444 28.444zM28.444 391.111h398.222c15.709 0 28.444-12.735 28.444-28.444v-398.222c0-15.709-12.735-28.444-28.444-28.444h-398.222c-15.709 0-28.444 12.735-28.444 28.444v398.222c0 15.709 12.735 28.444 28.444 28.444zM597.333 391.111h398.222c15.709 0 28.444-12.735 28.444-28.444v-398.222c0-15.709-12.735-28.444-28.444-28.444h-398.222c-15.709 0-28.444 12.735-28.444 28.444v398.222c0 15.709 12.735 28.444 28.444 28.444z" />
<glyph unicode="&#xe980;" glyph-name="menu" d="M56.889 903.111v-341.333h341.333v341.333h-341.333zM28.444 960h398.222c15.709 0 28.444-12.735 28.444-28.444v-398.222c0-15.709-12.735-28.444-28.444-28.444h-398.222c-15.709 0-28.444 12.735-28.444 28.444v398.222c0 15.709 12.735 28.444 28.444 28.444zM625.778 903.111v-341.333h341.333v341.333h-341.333zM597.333 960h398.222c15.709 0 28.444-12.735 28.444-28.444v-398.222c0-15.709-12.735-28.444-28.444-28.444h-398.222c-15.709 0-28.444 12.735-28.444 28.444v398.222c0 15.709 12.735 28.444 28.444 28.444zM56.889 334.222v-341.333h341.333v341.333h-341.333zM28.444 391.111h398.222c15.709 0 28.444-12.735 28.444-28.444v-398.222c0-15.709-12.735-28.444-28.444-28.444h-398.222c-15.709 0-28.444 12.735-28.444 28.444v398.222c0 15.709 12.735 28.444 28.444 28.444zM625.778 334.222v-341.333h341.333v341.333h-341.333zM597.333 391.111h398.222c15.709 0 28.444-12.735 28.444-28.444v-398.222c0-15.709-12.735-28.444-28.444-28.444h-398.222c-15.709 0-28.444 12.735-28.444 28.444v398.222c0 15.709 12.735 28.444 28.444 28.444z" />
<glyph unicode="&#xe981;" glyph-name="more" d="M150.588 327.529c-66.534 0-120.471 53.937-120.471 120.471s53.937 120.471 120.471 120.471c66.534 0 120.471-53.937 120.471-120.471s-53.937-120.471-120.471-120.471zM150.588 387.765c33.267 0 60.235 26.968 60.235 60.235s-26.968 60.235-60.235 60.235c-33.267 0-60.235-26.968-60.235-60.235s26.968-60.235 60.235-60.235zM512 327.529c-66.534 0-120.471 53.937-120.471 120.471s53.937 120.471 120.471 120.471c66.534 0 120.471-53.937 120.471-120.471s-53.937-120.471-120.471-120.471zM512 387.765c33.267 0 60.235 26.968 60.235 60.235s-26.968 60.235-60.235 60.235c-33.267 0-60.235-26.968-60.235-60.235s26.968-60.235 60.235-60.235zM873.412 327.529c-66.534 0-120.471 53.937-120.471 120.471s53.937 120.471 120.471 120.471c66.534 0 120.471-53.937 120.471-120.471s-53.937-120.471-120.471-120.471zM873.412 387.765c33.267 0 60.235 26.968 60.235 60.235s-26.968 60.235-60.235 60.235c-33.267 0-60.235-26.968-60.235-60.235s26.968-60.235 60.235-60.235z" />
<glyph unicode="&#xe982;" glyph-name="news" d="M256-64h-153.6c-56.554 0-102.4 45.846-102.4 102.4v307.2c0 56.554 45.846 102.4 102.4 102.4h153.6v409.6c0 56.554 45.846 102.4 102.4 102.4h563.2c56.554 0 102.4-45.846 102.4-102.4v-819.2c0-56.554-45.846-102.4-102.4-102.4h-665.6zM102.4 396.8c-28.277 0-51.2-22.923-51.2-51.2v-307.2c0-28.277 22.923-51.2 51.2-51.2h51.2c56.554 0 102.4 45.846 102.4 102.4v307.2h-153.6zM358.4 908.8c-28.277 0-51.2-22.923-51.2-51.2v-819.2c0-28.277 22.923-51.2 51.2-51.2h563.2c28.277 0 51.2 22.923 51.2 51.2v819.2c0 28.277-22.923 51.2-51.2 51.2h-563.2zM384 780.8h512c14.138 0 25.6-11.462 25.6-25.6s-11.462-25.6-25.6-25.6h-512c-14.138 0-25.6 11.462-25.6 25.6s11.462 25.6 25.6 25.6zM384 473.6h512c14.138 0 25.6-11.462 25.6-25.6s-11.462-25.6-25.6-25.6h-512c-14.138 0-25.6 11.462-25.6 25.6s11.462 25.6 25.6 25.6zM384 166.4h512c14.138 0 25.6-11.462 25.6-25.6s-11.462-25.6-25.6-25.6h-512c-14.138 0-25.6 11.462-25.6 25.6s11.462 25.6 25.6 25.6zM384 627.2h256c14.138 0 25.6-11.462 25.6-25.6s-11.462-25.6-25.6-25.6h-256c-14.138 0-25.6 11.462-25.6 25.6s11.462 25.6 25.6 25.6zM384 320h256c14.138 0 25.6-11.462 25.6-25.6s-11.462-25.6-25.6-25.6h-256c-14.138 0-25.6 11.462-25.6 25.6s11.462 25.6 25.6 25.6z" />
</font>
</defs>
</svg>
